<svg width="48" height="48" viewBox="0 0 48 48" fill="none" xmlns="http://www.w3.org/2000/svg">
<g opacity="0.2" filter="url(#filter0_f_474_2787)">
<circle cx="24" cy="24" r="24" fill="#8DFFFF"/>
</g>
<path d="M23.9993 34.8793C23.7271 34.8793 23.4549 34.8307 23.1827 34.7335C22.9105 34.6363 22.6674 34.4904 22.4535 34.296C21.1896 33.1293 20.0716 31.9918 19.0993 30.8835C18.1271 29.7752 17.3153 28.7009 16.6639 27.6606C16.0125 26.6203 15.5167 25.6189 15.1764 24.6564C14.8362 23.6939 14.666 22.7752 14.666 21.9002C14.666 18.9835 15.6042 16.6599 17.4806 14.9293C19.357 13.1988 21.5299 12.3335 23.9993 12.3335C26.4688 12.3335 28.6417 13.1988 30.5181 14.9293C32.3945 16.6599 33.3327 18.9835 33.3327 21.9002C33.3327 22.7752 33.1625 23.6939 32.8223 24.6564C32.482 25.6189 31.9862 26.6203 31.3348 27.6606C30.6834 28.7009 29.8716 29.7752 28.8994 30.8835C27.9271 31.9918 26.8091 33.1293 25.5452 34.296C25.3313 34.4904 25.0882 34.6363 24.816 34.7335C24.5438 34.8307 24.2716 34.8793 23.9993 34.8793ZM23.9993 24.0002C24.641 24.0002 25.1903 23.7717 25.6473 23.3147C26.1042 22.8578 26.3327 22.3085 26.3327 21.6668C26.3327 21.0252 26.1042 20.4759 25.6473 20.0189C25.1903 19.562 24.641 19.3335 23.9993 19.3335C23.3577 19.3335 22.8084 19.562 22.3514 20.0189C21.8945 20.4759 21.666 21.0252 21.666 21.6668C21.666 22.3085 21.8945 22.8578 22.3514 23.3147C22.8084 23.7717 23.3577 24.0002 23.9993 24.0002Z" fill="white"/>
<defs>
<filter id="filter0_f_474_2787" x="-3" y="-3" width="54" height="54" filterUnits="userSpaceOnUse" color-interpolation-filters="sRGB">
<feFlood flood-opacity="0" result="BackgroundImageFix"/>
<feBlend mode="normal" in="SourceGraphic" in2="BackgroundImageFix" result="shape"/>
<feGaussianBlur stdDeviation="1.5" result="effect1_foregroundBlur_474_2787"/>
</filter>
</defs>
</svg>
