<svg width="24" height="24" viewBox="0 0 24 24" fill="none" xmlns="http://www.w3.org/2000/svg">
<path d="M5.40006 18.6001H4.20006L5.40006 19.8001V18.6001Z" fill="#B1022A"/>
<path d="M6.39983 21.5999H18.7998C19.3521 21.5999 19.7998 21.1522 19.7998 20.5999V6.5999L15.5998 2.3999H6.39983C5.84754 2.3999 5.39983 2.84762 5.39983 3.3999V20.5999C5.39983 21.1522 5.84754 21.5999 6.39983 21.5999Z" fill="white"/>
<path d="M4.20006 13.6001C4.20006 13.0478 4.64777 12.6001 5.20006 12.6001H17.0001C17.5523 12.6001 18.0001 13.0478 18.0001 13.6001V17.6001C18.0001 18.1524 17.5523 18.6001 17.0001 18.6001H4.20006V13.6001Z" fill="#D71E48"/>
<path d="M8.22737 16.2768H7.68497V17.4H6.95537V13.9536H8.22737C9.06737 13.9536 9.59057 14.352 9.59057 15.1008C9.59057 15.8496 9.06737 16.2768 8.22737 16.2768ZM8.22257 14.568H7.68497V15.6624H8.22257C8.63537 15.6624 8.86577 15.4464 8.86577 15.1056C8.86577 14.7648 8.63537 14.568 8.22257 14.568Z" fill="white"/>
<path d="M11.3106 17.4H10.0866V13.9536H11.3106C12.405 13.9536 13.0674 14.6544 13.0674 15.6576C13.0674 16.6608 12.381 17.4 11.3106 17.4ZM10.8162 14.5824V16.7712H11.2722C11.9586 16.7712 12.3186 16.3728 12.3186 15.6576C12.3186 14.9712 11.9586 14.5824 11.2722 14.5824H10.8162Z" fill="white"/>
<path d="M14.3037 17.4H13.5741V13.9536H15.8013V14.5872H14.3037V15.456H15.5661V16.0848H14.3037V17.4Z" fill="white"/>
<path d="M15.6002 6.5999V2.3999L19.8002 6.5999H15.6002Z" fill="#ECECEC"/>
</svg>
