<svg width="89" height="13" viewBox="0 0 89 13" fill="none" xmlns="http://www.w3.org/2000/svg">
<path d="M0 12.7309V0.249626H8.57994V3.53043H3.61073V5.43829H8.02582V8.57645H3.61073V12.7309H0Z" fill="white"/>
<path d="M10.8227 12.7309V0.249626H14.4334V12.7309H10.8227Z" fill="white"/>
<path d="M17.1766 12.7309V0.249626H20.7874L25.1667 6.95388V0.249626H28.6523V12.7309H25.0416L20.6622 5.91971V12.7309H17.1766Z" fill="white"/>
<path d="M35.9617 12.9984C34.9608 12.9984 33.9866 12.8468 33.0392 12.5437C32.0978 12.2406 31.2994 11.8038 30.644 11.2332L32.3153 8.57645C32.5596 8.86173 32.8873 9.11136 33.2984 9.32533C33.7095 9.53929 34.1504 9.70571 34.6211 9.82458C35.0918 9.94345 35.5387 10.0029 35.9617 10.0029C36.4384 10.0029 36.8317 9.93453 37.1415 9.79783C37.4513 9.66113 37.6062 9.46797 37.6062 9.21834C37.6062 8.97466 37.4871 8.77555 37.2487 8.62102C37.0104 8.46055 36.5695 8.2971 35.926 8.13069L34.9965 7.88106C33.638 7.51256 32.6668 7.00142 32.0829 6.34764C31.499 5.68791 31.207 4.90932 31.207 4.01185C31.207 3.44722 31.3292 2.92122 31.5735 2.43386C31.8237 1.94649 32.1693 1.52153 32.6102 1.15898C33.0571 0.790484 33.5814 0.505197 34.1832 0.303118C34.785 0.101039 35.4374 0 36.1405 0C37.1534 0 38.0948 0.148587 38.9647 0.445762C39.8406 0.736992 40.5377 1.14115 41.0561 1.65823L39.3222 4.24365C39.1137 3.99996 38.8456 3.786 38.5178 3.60175C38.1901 3.41156 37.8297 3.26297 37.4364 3.15599C37.0432 3.04901 36.6469 2.99552 36.2477 2.99552C35.9319 2.99552 35.6579 3.03415 35.4255 3.11141C35.1931 3.18274 35.0114 3.28377 34.8803 3.41453C34.7552 3.53934 34.6926 3.68496 34.6926 3.85138C34.6926 3.99996 34.7463 4.12181 34.8535 4.2169C34.9607 4.312 35.1365 4.40412 35.3808 4.49327C35.6311 4.58243 35.9677 4.68941 36.3907 4.81422L37.3024 5.08168C38.6608 5.47989 39.638 5.97023 40.2338 6.55269C40.8297 7.13515 41.1276 7.887 41.1276 8.80824C41.1276 9.63439 40.9131 10.3625 40.4841 10.9925C40.0551 11.6225 39.4533 12.1158 38.6787 12.4724C37.9041 12.8231 36.9985 12.9984 35.9617 12.9984Z" fill="white"/>
<path d="M42.9241 12.7309V0.249626H52.2012V3.35212H46.5349V4.9747H51.1823V7.80974H46.5349V9.59278H52.2727V12.7309H42.9241Z" fill="white"/>
<path d="M54.5498 12.7309V0.249626H59.8586C60.8358 0.249626 61.6878 0.401185 62.4147 0.704303C63.1476 1.00742 63.7136 1.45021 64.1129 2.03267C64.518 2.60919 64.7206 3.31052 64.7206 4.13666C64.7206 4.7429 64.6134 5.27484 64.3989 5.73249C64.1844 6.19014 63.8984 6.57647 63.5409 6.89147C63.1834 7.20647 62.7901 7.45313 62.3611 7.63143L65.4535 12.7309H61.1993L58.8576 8.4338H58.1605V12.7309H54.5498ZM58.1605 5.59876H59.4833C59.9778 5.59876 60.3651 5.50961 60.6451 5.33131C60.9311 5.153 61.0741 4.838 61.0741 4.38629C61.0741 3.92864 60.9311 3.61364 60.6451 3.44128C60.3651 3.26297 59.9838 3.17382 59.5011 3.17382H58.1605V5.59876Z" fill="white"/>
<path d="M69.7703 12.7309L65.2837 0.249626H69.3591L71.9152 8.23767L74.4714 0.249626H78.4753L73.9709 12.7309H69.7703Z" fill="white"/>
<path d="M79.6514 12.7309V0.249626H88.9285V3.35212H83.2622V4.9747H87.9096V7.80974H83.2622V9.59278H89V12.7309H79.6514Z" fill="white"/>
</svg>
