<svg width="40" height="40" viewBox="0 0 40 40" fill="none" xmlns="http://www.w3.org/2000/svg">
<path d="M9.00012 31H7.00012L9.00012 33V31Z" fill="#B1022A"/>
<path d="M9.99976 36H31.9998C32.552 36 32.9998 35.5522 32.9998 35V11L25.9998 3.99995H9.99976C9.44747 3.99995 8.99976 4.44767 8.99976 4.99995V35C8.99976 35.5522 9.44747 36 9.99976 36Z" fill="white"/>
<path d="M7.00012 22C7.00012 21.4478 7.44784 21 8.00012 21H29.0001C29.5524 21 30.0001 21.4478 30.0001 22V30C30.0001 30.5523 29.5524 31 29.0001 31H7.00012V22Z" fill="#D71E48"/>
<path d="M13.7123 27.128H12.8083V29H11.5923V23.256H13.7123C15.1123 23.256 15.9843 23.92 15.9843 25.168C15.9843 26.416 15.1123 27.128 13.7123 27.128ZM13.7043 24.28H12.8083V26.104H13.7043C14.3923 26.104 14.7763 25.744 14.7763 25.176C14.7763 24.608 14.3923 24.28 13.7043 24.28Z" fill="white"/>
<path d="M18.851 29H16.811V23.256H18.851C20.675 23.256 21.779 24.424 21.779 26.096C21.779 27.768 20.635 29 18.851 29ZM18.027 24.304V27.952H18.787C19.931 27.952 20.531 27.288 20.531 26.096C20.531 24.952 19.931 24.304 18.787 24.304H18.027Z" fill="white"/>
<path d="M23.8395 29H22.6235V23.256H26.3355V24.312H23.8395V25.76H25.9435V26.808H23.8395V29Z" fill="white"/>
<path d="M26.0002 11V3.99995L33.0002 11H26.0002Z" fill="#ECECEC"/>
</svg>
