<svg width="48" height="48" viewBox="0 0 48 48" fill="none" xmlns="http://www.w3.org/2000/svg">
<g opacity="0.2" filter="url(#filter0_f_474_2781)">
<circle cx="24" cy="24" r="24" fill="#8DFFFF"/>
</g>
<path d="M14.6673 33.3332C14.0257 33.3332 13.4763 33.1047 13.0194 32.6478C12.5625 32.1908 12.334 31.6415 12.334 30.9998V16.9998C12.334 16.3582 12.5625 15.8089 13.0194 15.3519C13.4763 14.895 14.0257 14.6665 14.6673 14.6665H33.334C33.9756 14.6665 34.525 14.895 34.9819 15.3519C35.4388 15.8089 35.6673 16.3582 35.6673 16.9998V30.9998C35.6673 31.6415 35.4388 32.1908 34.9819 32.6478C34.525 33.1047 33.9756 33.3332 33.334 33.3332H14.6673ZM24.0007 24.9623C24.0979 24.9623 24.2 24.9478 24.3069 24.9186C24.4138 24.8894 24.5159 24.8457 24.6132 24.7873L32.8673 19.6248C33.0229 19.5276 33.1395 19.4061 33.2173 19.2603C33.2951 19.1144 33.334 18.954 33.334 18.779C33.334 18.3901 33.1687 18.0984 32.8382 17.904C32.5076 17.7096 32.1673 17.7193 31.8173 17.9332L24.0007 22.8332L16.184 17.9332C15.834 17.7193 15.4937 17.7144 15.1632 17.9186C14.8326 18.1228 14.6673 18.4096 14.6673 18.779C14.6673 18.9734 14.7062 19.1436 14.784 19.2894C14.8618 19.4353 14.9784 19.5471 15.134 19.6248L23.3882 24.7873C23.4854 24.8457 23.5875 24.8894 23.6944 24.9186C23.8013 24.9478 23.9034 24.9623 24.0007 24.9623Z" fill="white"/>
<defs>
<filter id="filter0_f_474_2781" x="-3" y="-3" width="54" height="54" filterUnits="userSpaceOnUse" color-interpolation-filters="sRGB">
<feFlood flood-opacity="0" result="BackgroundImageFix"/>
<feBlend mode="normal" in="SourceGraphic" in2="BackgroundImageFix" result="shape"/>
<feGaussianBlur stdDeviation="1.5" result="effect1_foregroundBlur_474_2781"/>
</filter>
</defs>
</svg>
