<svg width="48" height="48" viewBox="0 0 48 48" fill="none" xmlns="http://www.w3.org/2000/svg">
<g opacity="0.2" filter="url(#filter0_f_474_2775)">
<circle cx="24" cy="24" r="24" fill="#8DFFFF"/>
</g>
<path d="M33.275 34.5C30.8444 34.5 28.4431 33.9701 26.0708 32.9104C23.6986 31.8507 21.5403 30.3486 19.5958 28.4042C17.6514 26.4597 16.1493 24.3014 15.0896 21.9292C14.0299 19.5569 13.5 17.1556 13.5 14.725C13.5 14.375 13.6167 14.0833 13.85 13.85C14.0833 13.6167 14.375 13.5 14.725 13.5H19.45C19.7222 13.5 19.9653 13.5924 20.1792 13.7771C20.3931 13.9618 20.5194 14.1806 20.5583 14.4333L21.3167 18.5167C21.3556 18.8278 21.3458 19.0903 21.2875 19.3042C21.2292 19.5181 21.1222 19.7028 20.9667 19.8583L18.1375 22.7167C18.5264 23.4361 18.9882 24.1313 19.5229 24.8021C20.0576 25.4729 20.6458 26.1194 21.2875 26.7417C21.8903 27.3444 22.5222 27.9035 23.1833 28.4187C23.8444 28.934 24.5444 29.4056 25.2833 29.8333L28.025 27.0917C28.2 26.9167 28.4285 26.7854 28.7104 26.6979C28.9924 26.6104 29.2694 26.5861 29.5417 26.625L33.5667 27.4417C33.8389 27.5194 34.0625 27.6604 34.2375 27.8646C34.4125 28.0688 34.5 28.2972 34.5 28.55V33.275C34.5 33.625 34.3833 33.9167 34.15 34.15C33.9167 34.3833 33.625 34.5 33.275 34.5Z" fill="white"/>
<defs>
<filter id="filter0_f_474_2775" x="-3" y="-3" width="54" height="54" filterUnits="userSpaceOnUse" color-interpolation-filters="sRGB">
<feFlood flood-opacity="0" result="BackgroundImageFix"/>
<feBlend mode="normal" in="SourceGraphic" in2="BackgroundImageFix" result="shape"/>
<feGaussianBlur stdDeviation="1.5" result="effect1_foregroundBlur_474_2775"/>
</filter>
</defs>
</svg>
