<svg width="174" height="78" viewBox="0 0 174 78" fill="none" xmlns="http://www.w3.org/2000/svg">
<path d="M15.509 66.7682V68.4148H13.1111V75.4998H11.3603V68.4148H8.9751V66.7682H15.509Z" fill="white"/>
<path d="M20.413 69.263H22.0496V75.4998H20.413V74.7639C19.9224 75.3709 19.2331 75.6744 18.345 75.6744C17.4992 75.6744 16.7718 75.3584 16.1628 74.7264C15.5623 74.0861 15.262 73.3044 15.262 72.3814C15.262 71.4583 15.5623 70.6808 16.1628 70.0488C16.7718 69.4085 17.4992 69.0883 18.345 69.0883C19.2331 69.0883 19.9224 69.3919 20.413 69.9989V69.263ZM17.3934 73.6537C17.7233 73.978 18.142 74.1402 18.6494 74.1402C19.1569 74.1402 19.5756 73.978 19.9055 73.6537C20.2438 73.3211 20.413 72.897 20.413 72.3814C20.413 71.8658 20.2438 71.4459 19.9055 71.1216C19.5756 70.7889 19.1569 70.6226 18.6494 70.6226C18.142 70.6226 17.7233 70.7889 17.3934 71.1216C17.0636 71.4459 16.8986 71.8658 16.8986 72.3814C16.8986 72.897 17.0636 73.3211 17.3934 73.6537Z" fill="white"/>
<path d="M25.5042 70.3357C25.6564 69.9366 25.9059 69.6372 26.2527 69.4376C26.608 69.238 27.0013 69.1382 27.4326 69.1382V70.9344C26.9336 70.8762 26.4853 70.976 26.0878 71.2338C25.6987 71.4916 25.5042 71.9199 25.5042 72.5186V75.4998H23.8676V69.263H25.5042V70.3357Z" fill="white"/>
<path d="M33.3094 69.263H34.946V75.4998H33.3094V74.7639C32.8188 75.3709 32.1295 75.6744 31.2414 75.6744C30.3956 75.6744 29.6682 75.3584 29.0592 74.7264C28.4587 74.0861 28.1584 73.3044 28.1584 72.3814C28.1584 71.4583 28.4587 70.6808 29.0592 70.0488C29.6682 69.4085 30.3956 69.0883 31.2414 69.0883C32.1295 69.0883 32.8188 69.3919 33.3094 69.9989V69.263ZM30.2898 73.6537C30.6197 73.978 31.0384 74.1402 31.5459 74.1402C32.0534 74.1402 32.472 73.978 32.8019 73.6537C33.1402 73.3211 33.3094 72.897 33.3094 72.3814C33.3094 71.8658 33.1402 71.4459 32.8019 71.1216C32.472 70.7889 32.0534 70.6226 31.5459 70.6226C31.0384 70.6226 30.6197 70.7889 30.2898 71.1216C29.96 71.4459 29.795 71.8658 29.795 72.3814C29.795 72.897 29.96 73.3211 30.2898 73.6537Z" fill="white"/>
<path d="M42.6127 75.4998H40.7097L38.4006 72.6683V75.4998H36.764V66.7682H38.4006V72.0072L40.5828 69.263H42.5366L39.9865 72.344L42.6127 75.4998Z" fill="white"/>
<path d="M49.6123 75.4998H47.7092L45.4002 72.6683V75.4998H43.7635V66.7682H45.4002V72.0072L47.5823 69.263H49.5362L46.986 72.344L49.6123 75.4998Z" fill="white"/>
<path d="M51.5751 68.5146C51.3044 68.5146 51.0676 68.4189 50.8646 68.2277C50.67 68.0281 50.5728 67.7952 50.5728 67.5291C50.5728 67.263 50.67 67.0302 50.8646 66.8306C51.0676 66.631 51.3044 66.5312 51.5751 66.5312C51.8542 66.5312 52.091 66.631 52.2855 66.8306C52.4885 67.0302 52.59 67.263 52.59 67.5291C52.59 67.7952 52.4885 68.0281 52.2855 68.2277C52.091 68.4189 51.8542 68.5146 51.5751 68.5146ZM50.7631 75.4998V69.263H52.3997V75.4998H50.7631Z" fill="white"/>
<path d="M64.7532 75.4998H62.7359L59.5641 71.4084V75.4998H57.8133V66.7682H59.5641V70.6226L62.609 66.7682H64.6263L61.3403 71.0093L64.7532 75.4998Z" fill="white"/>
<path d="M70.1278 69.263H71.7644V75.4998H70.1278V74.7639C69.6372 75.3709 68.9479 75.6744 68.0598 75.6744C67.214 75.6744 66.4866 75.3584 65.8776 74.7264C65.2771 74.0861 64.9768 73.3044 64.9768 72.3814C64.9768 71.4583 65.2771 70.6808 65.8776 70.0488C66.4866 69.4085 67.214 69.0883 68.0598 69.0883C68.9479 69.0883 69.6372 69.3919 70.1278 69.9989V69.263ZM67.1082 73.6537C67.4381 73.978 67.8568 74.1402 68.3643 74.1402C68.8718 74.1402 69.2904 73.978 69.6203 73.6537C69.9586 73.3211 70.1278 72.897 70.1278 72.3814C70.1278 71.8658 69.9586 71.4459 69.6203 71.1216C69.2904 70.7889 68.8718 70.6226 68.3643 70.6226C67.8568 70.6226 67.4381 70.7889 67.1082 71.1216C66.7784 71.4459 66.6135 71.8658 66.6135 72.3814C66.6135 72.897 66.7784 73.3211 67.1082 73.6537Z" fill="white"/>
<path d="M82.3024 66.7682H84.0532V75.4998H82.7211L78.915 70.1611V75.4998H77.1641V66.7682H78.4963L82.3024 72.0945V66.7682Z" fill="white"/>
<path d="M90.7795 69.263H92.4162V75.4998H90.7795V74.7639C90.289 75.3709 89.5996 75.6744 88.7115 75.6744C87.8657 75.6744 87.1383 75.3584 86.5294 74.7264C85.9288 74.0861 85.6286 73.3044 85.6286 72.3814C85.6286 71.4583 85.9288 70.6808 86.5294 70.0488C87.1383 69.4085 87.8657 69.0883 88.7115 69.0883C89.5996 69.0883 90.289 69.3919 90.7795 69.9989V69.263ZM87.76 73.6537C88.0899 73.978 88.5085 74.1402 89.016 74.1402C89.5235 74.1402 89.9422 73.978 90.272 73.6537C90.6104 73.3211 90.7795 72.897 90.7795 72.3814C90.7795 71.8658 90.6104 71.4459 90.272 71.1216C89.9422 70.7889 89.5235 70.6226 89.016 70.6226C88.5085 70.6226 88.0899 70.7889 87.76 71.1216C87.4301 71.4459 87.2652 71.8658 87.2652 72.3814C87.2652 72.897 87.4301 73.3211 87.76 73.6537Z" fill="white"/>
<path d="M98.3701 69.263H100.121L97.8119 75.4998C97.482 76.3979 97.0422 77.0465 96.4924 77.4457C95.9511 77.8532 95.2745 78.0361 94.4625 77.9945V76.4977C94.9023 76.506 95.2491 76.4145 95.5028 76.2233C95.765 76.032 95.9723 75.7243 96.1245 75.3002L93.5237 69.263H95.3125L96.9619 73.4541L98.3701 69.263Z" fill="white"/>
<path d="M105.807 69.263H107.444V75.4998H105.807V74.7639C105.316 75.3709 104.627 75.6744 103.739 75.6744C102.893 75.6744 102.166 75.3584 101.557 74.7264C100.956 74.0861 100.656 73.3044 100.656 72.3814C100.656 71.4583 100.956 70.6808 101.557 70.0488C102.166 69.4085 102.893 69.0883 103.739 69.0883C104.627 69.0883 105.316 69.3919 105.807 69.9989V69.263ZM102.787 73.6537C103.117 73.978 103.536 74.1402 104.043 74.1402C104.551 74.1402 104.97 73.978 105.299 73.6537C105.638 73.3211 105.807 72.897 105.807 72.3814C105.807 71.8658 105.638 71.4459 105.299 71.1216C104.97 70.7889 104.551 70.6226 104.043 70.6226C103.536 70.6226 103.117 70.7889 102.787 71.1216C102.458 71.4459 102.293 71.8658 102.293 72.3814C102.293 72.897 102.458 73.3211 102.787 73.6537Z" fill="white"/>
<path d="M118.717 66.7682V68.4148H116.32V75.4998H114.569V68.4148H112.184V66.7682H118.717Z" fill="white"/>
<path d="M123.621 69.263H125.258V75.4998H123.621V74.7639C123.131 75.3709 122.442 75.6744 121.553 75.6744C120.708 75.6744 119.98 75.3584 119.371 74.7264C118.771 74.0861 118.471 73.3044 118.471 72.3814C118.471 71.4583 118.771 70.6808 119.371 70.0488C119.98 69.4085 120.708 69.0883 121.553 69.0883C122.442 69.0883 123.131 69.3919 123.621 69.9989V69.263ZM120.602 73.6537C120.932 73.978 121.35 74.1402 121.858 74.1402C122.365 74.1402 122.784 73.978 123.114 73.6537C123.452 73.3211 123.621 72.897 123.621 72.3814C123.621 71.8658 123.452 71.4459 123.114 71.1216C122.784 70.7889 122.365 70.6226 121.858 70.6226C121.35 70.6226 120.932 70.7889 120.602 71.1216C120.272 71.4459 120.107 71.8658 120.107 72.3814C120.107 72.897 120.272 73.3211 120.602 73.6537Z" fill="white"/>
<path d="M128.713 70.3357C128.865 69.9366 129.114 69.6372 129.461 69.4376C129.816 69.238 130.21 69.1382 130.641 69.1382V70.9344C130.142 70.8762 129.694 70.976 129.296 71.2338C128.907 71.4916 128.713 71.9199 128.713 72.5186V75.4998H127.076V69.263H128.713V70.3357Z" fill="white"/>
<path d="M133.08 73.0425C133.3 73.8242 133.896 74.215 134.869 74.215C135.494 74.215 135.968 74.0071 136.29 73.5913L137.609 74.3398C136.983 75.2295 136.061 75.6744 134.843 75.6744C133.794 75.6744 132.953 75.3626 132.318 74.7389C131.684 74.1152 131.367 73.3294 131.367 72.3814C131.367 71.4417 131.68 70.66 132.306 70.0363C132.932 69.4043 133.735 69.0883 134.716 69.0883C135.647 69.0883 136.412 69.4043 137.013 70.0363C137.622 70.6683 137.926 71.45 137.926 72.3814C137.926 72.5893 137.905 72.8097 137.863 73.0425H133.08ZM133.054 71.7951H136.29C136.196 71.371 136.002 71.055 135.706 70.8471C135.418 70.6392 135.088 70.5353 134.716 70.5353C134.277 70.5353 133.913 70.6476 133.625 70.8721C133.338 71.0883 133.147 71.396 133.054 71.7951Z" fill="white"/>
<path d="M140.736 73.0425C140.956 73.8242 141.552 74.215 142.525 74.215C143.151 74.215 143.624 74.0071 143.946 73.5913L145.265 74.3398C144.639 75.2295 143.717 75.6744 142.499 75.6744C141.451 75.6744 140.609 75.3626 139.975 74.7389C139.34 74.1152 139.023 73.3294 139.023 72.3814C139.023 71.4417 139.336 70.66 139.962 70.0363C140.588 69.4043 141.391 69.0883 142.373 69.0883C143.303 69.0883 144.068 69.4043 144.669 70.0363C145.278 70.6683 145.582 71.45 145.582 72.3814C145.582 72.5893 145.561 72.8097 145.519 73.0425H140.736ZM140.711 71.7951H143.946C143.853 71.371 143.658 71.055 143.362 70.8471C143.075 70.6392 142.745 70.5353 142.373 70.5353C141.933 70.5353 141.569 70.6476 141.281 70.8721C140.994 71.0883 140.804 71.396 140.711 71.7951Z" fill="white"/>
<path d="M152.908 75.4998H151.004L148.695 72.6683V75.4998H147.059V66.7682H148.695V72.0072L150.878 69.263H152.831L150.281 72.344L152.908 75.4998Z" fill="white"/>
<path d="M158.421 69.263H160.058V75.4998H158.421V74.7639C157.93 75.3709 157.241 75.6744 156.353 75.6744C155.507 75.6744 154.78 75.3584 154.171 74.7264C153.57 74.0861 153.27 73.3044 153.27 72.3814C153.27 71.4583 153.57 70.6808 154.171 70.0488C154.78 69.4085 155.507 69.0883 156.353 69.0883C157.241 69.0883 157.93 69.3919 158.421 69.9989V69.263ZM155.401 73.6537C155.731 73.978 156.15 74.1402 156.658 74.1402C157.165 74.1402 157.584 73.978 157.914 73.6537C158.252 73.3211 158.421 72.897 158.421 72.3814C158.421 71.8658 158.252 71.4459 157.914 71.1216C157.584 70.7889 157.165 70.6226 156.658 70.6226C156.15 70.6226 155.731 70.7889 155.401 71.1216C155.072 71.4459 154.907 71.8658 154.907 72.3814C154.907 72.897 155.072 73.3211 155.401 73.6537Z" fill="white"/>
<g clip-path="url(#clip0_474_1028)">
<path d="M135.886 0.890706C134.984 1.05264 134 1.21458 133.098 1.45749C130.065 0.566829 126.457 4.40162e-05 122.358 0.404891C122.358 0.323921 128.261 -0.72868 135.886 0.890706ZM158.923 15.4652C156.381 12.1454 153.594 9.47345 150.807 7.44922C149.249 7.7731 146.953 8.33988 144.986 8.90667C146.215 10.2022 146.789 11.0928 146.789 11.0928C115.881 11.0119 93.2539 27.3677 93.2539 27.3677C121.784 19.2707 148.183 21.7808 148.183 21.7808L145.396 24.4528L151.79 21.3759L141.952 17.6514C150.561 13.6029 158.923 15.4652 158.923 15.4652ZM139.903 1.94331C138.591 2.18622 137.197 2.51009 136.377 2.67203C138.591 3.64366 140.395 4.8582 141.87 6.07274C143.018 5.6679 144.576 5.18208 146.461 4.69626C144.248 3.48172 142.034 2.59106 139.903 1.94331Z" fill="#D71E48"/>
<path d="M24.6334 39.9188C26.3551 39.352 27.5029 38.1374 27.5029 36.2752V36.1942C27.5029 35.0606 27.093 34.2509 26.5191 33.6841C25.5353 32.7125 24.1415 32.2267 21.928 32.2267H12.9097H11.3521L12.2539 36.2752H12.8278V48.1776H21.764C25.8632 48.1776 27.9948 46.3153 27.9948 43.7243V43.6434C28.0768 41.6191 26.683 40.4856 24.6334 39.9188ZM18.1567 36.3561H20.4523C21.6 36.3561 22.1739 36.761 22.1739 37.4897V37.5707C22.1739 38.2994 21.6 38.7042 20.4523 38.7042H18.1567V36.3561ZM22.5838 43.0766C22.5838 43.7243 22.01 44.2101 20.7802 44.2101H18.1567V41.862H20.8622C22.01 41.862 22.5838 42.3478 22.5838 43.0766Z" fill="#D71E48"/>
<path d="M34.1436 32.3077H28.7327V48.2587H40.3744V43.6434H34.1436V32.3077Z" fill="#D71E48"/>
<path d="M47.5069 32.1458L40.7023 48.1777H46.4411L47.015 46.7202H53.2458L53.8197 48.1777H59.7225L52.9179 32.1458H47.5069ZM51.6061 42.1859H48.7367L50.2124 38.3804L51.6061 42.1859Z" fill="#D71E48"/>
<path d="M66.4453 43.8053C64.6416 43.8053 63.4119 42.3479 63.4119 40.2427V40.1617C63.4119 38.2184 64.6416 36.68 66.4453 36.68C67.921 36.68 68.7408 37.4897 69.3967 38.6233L73.8238 36.0323C72.4301 33.6032 70.0526 31.9028 66.5273 31.9028C61.6902 31.9028 57.9189 35.4655 57.9189 40.2427V40.3236C57.9189 45.2628 61.8542 48.5825 66.2813 48.5825C70.2985 48.5825 72.5941 46.6392 73.9058 44.2911L69.4787 41.7811C68.8228 42.9956 68.003 43.8053 66.4453 43.8053Z" fill="#D71E48"/>
<path d="M104.404 39.9188C106.125 39.352 107.273 38.1374 107.273 36.2752V36.1942C107.273 35.0606 106.863 34.2509 106.289 33.6841C105.306 32.7125 103.912 32.2267 101.698 32.2267H92.6801V48.1776H101.616C105.715 48.1776 107.847 46.3153 107.847 43.7243V43.6434C107.765 41.6191 106.453 40.4856 104.404 39.9188ZM97.927 36.3561H100.223C101.37 36.3561 101.944 36.761 101.944 37.4897V37.5707C101.944 38.2994 101.37 38.7042 100.223 38.7042H97.845V36.3561H97.927ZM102.354 43.0766C102.354 43.7243 101.78 44.2101 100.551 44.2101H97.845V41.862H100.551C101.78 41.862 102.354 42.3478 102.354 43.0766Z" fill="#D71E48"/>
<path d="M118.669 41.1334C118.669 43.0767 117.603 43.8863 116.209 43.8863C114.734 43.8863 113.75 43.0767 113.75 41.0524V32.3077H108.257V41.1334C108.257 46.3964 111.372 48.5826 116.209 48.5826C121.046 48.5826 124.244 46.4774 124.244 40.9715V32.3077H118.751V41.1334H118.669Z" fill="#D71E48"/>
<path d="M133.426 43.8053C131.622 43.8053 130.393 42.3479 130.393 40.2427V40.1617C130.393 38.2184 131.622 36.68 133.426 36.68C134.902 36.68 135.722 37.4897 136.378 38.6233L140.805 36.0323C139.411 33.6032 137.033 31.9028 133.508 31.9028C128.671 31.9028 124.9 35.4655 124.9 40.2427V40.3236C124.9 45.2628 128.835 48.5825 133.262 48.5825C137.279 48.5825 139.575 46.6392 140.887 44.2911L136.46 41.7811C135.804 42.9956 134.984 43.8053 133.426 43.8053Z" fill="#D71E48"/>
<path d="M158.923 32.3077H152.528L146.871 39.595V32.3077H141.542V48.2587H146.871V44.858V40.9715L152.528 48.2587H158.923L152.774 40.2427L158.923 32.3077Z" fill="#D71E48"/>
<path d="M85.5474 32.3077L79.8905 39.595V32.3077H74.4796V48.2587H79.8905V44.858V40.9715L85.5474 48.2587H91.9422L85.7934 40.2427L91.9422 32.3077H85.5474Z" fill="#D71E48"/>
</g>
<path d="M0 58.5928H173.613" stroke="url(#paint0_linear_474_1028)"/>
<defs>
<linearGradient id="paint0_linear_474_1028" x1="157.661" y1="65.3415" x2="3.67479" y2="65.9234" gradientUnits="userSpaceOnUse">
<stop stop-color="#BCBCBC" stop-opacity="0"/>
<stop offset="0.494792" stop-color="#C4C4C4"/>
<stop offset="1" stop-color="#BCBCBC" stop-opacity="0"/>
</linearGradient>
<clipPath id="clip0_474_1028">
<rect width="147.571" height="48.5816" fill="white" transform="translate(11.3521)"/>
</clipPath>
</defs>
</svg>
