<svg width="116" height="38" viewBox="0 0 116 38" fill="none" xmlns="http://www.w3.org/2000/svg">
<g clip-path="url(#clip0_692_41)">
<path d="M97.8911 0.696646C97.1822 0.823312 96.4089 0.949979 95.7 1.13998C93.3156 0.443312 90.48 -2.11019e-05 87.2578 0.316646C87.2578 0.253312 91.8978 -0.570021 97.8911 0.696646ZM116 12.0966C114.002 9.49998 111.811 7.40998 109.62 5.82665C108.396 6.07998 106.591 6.52331 105.044 6.96665C106.011 7.97998 106.462 8.67665 106.462 8.67665C82.1667 8.61331 64.38 21.4066 64.38 21.4066C86.8067 15.0733 107.558 17.0366 107.558 17.0366L105.367 19.1266L110.393 16.72L102.66 13.8066C109.427 10.64 116 12.0966 116 12.0966ZM101.049 1.51998C100.018 1.70998 98.9222 1.96331 98.2778 2.08998C100.018 2.84998 101.436 3.79998 102.596 4.74998C103.498 4.43331 104.722 4.05331 106.204 3.67331C104.464 2.72331 102.724 2.02665 101.049 1.51998Z" fill="#D71E48"/>
<path d="M10.44 31.2242C11.7933 30.7809 12.6956 29.8309 12.6956 28.3742V28.3109C12.6956 27.4242 12.3733 26.7909 11.9222 26.3475C11.1489 25.5875 10.0533 25.2075 8.31333 25.2075H1.22444H0L0.708889 28.3742H1.16V37.6842H8.18445C11.4067 37.6842 13.0822 36.2275 13.0822 34.2009V34.1375C13.1467 32.5542 12.0511 31.6675 10.44 31.2242ZM5.34889 28.4375H7.15334C8.05556 28.4375 8.50667 28.7542 8.50667 29.3242V29.3875C8.50667 29.9575 8.05556 30.2742 7.15334 30.2742H5.34889V28.4375ZM8.82889 33.6942C8.82889 34.2009 8.37778 34.5809 7.41111 34.5809H5.34889V32.7442H7.47556C8.37778 32.7442 8.82889 33.1242 8.82889 33.6942Z" fill="#D71E48"/>
<path d="M17.9156 25.2708H13.6622V37.7474H22.8133V34.1374H17.9156V25.2708Z" fill="#D71E48"/>
<path d="M28.4201 25.144L23.0712 37.684H27.5823L28.0334 36.544H32.9312L33.3823 37.684H38.0223L32.6734 25.144H28.4201ZM31.6423 32.9974H29.3867L30.5467 30.0207L31.6423 32.9974Z" fill="#D71E48"/>
<path d="M43.3067 34.2641C41.8889 34.2641 40.9223 33.1241 40.9223 31.4774V31.4141C40.9223 29.8941 41.8889 28.6908 43.3067 28.6908C44.4667 28.6908 45.1112 29.3241 45.6267 30.2108L49.1067 28.1841C48.0112 26.2841 46.1423 24.9541 43.3712 24.9541C39.5689 24.9541 36.6045 27.7408 36.6045 31.4774V31.5408C36.6045 35.4041 39.6978 38.0008 43.1778 38.0008C46.3356 38.0008 48.1401 36.4808 49.1712 34.6441L45.6912 32.6808C45.1756 33.6308 44.5312 34.2641 43.3067 34.2641Z" fill="#D71E48"/>
<path d="M73.1444 31.2242C74.4977 30.7809 75.3999 29.8309 75.3999 28.3742V28.3109C75.3999 27.4242 75.0777 26.7909 74.6266 26.3475C73.8533 25.5875 72.7577 25.2075 71.0177 25.2075H63.9288V37.6842H70.9533C74.1755 37.6842 75.8511 36.2275 75.8511 34.2009V34.1375C75.7866 32.5542 74.7555 31.6675 73.1444 31.2242ZM68.0533 28.4375H69.8577C70.7599 28.4375 71.2111 28.7542 71.2111 29.3242V29.3875C71.2111 29.9575 70.7599 30.2742 69.8577 30.2742H67.9888V28.4375H68.0533ZM71.5333 33.6942C71.5333 34.2009 71.0822 34.5809 70.1155 34.5809H67.9888V32.7442H70.1155C71.0822 32.7442 71.5333 33.1242 71.5333 33.6942Z" fill="#D71E48"/>
<path d="M84.3578 32.1741C84.3578 33.6941 83.52 34.3274 82.4245 34.3274C81.2645 34.3274 80.4911 33.6941 80.4911 32.1108V25.2708H76.1733V32.1741C76.1733 36.2907 78.6222 38.0007 82.4245 38.0007C86.2267 38.0007 88.74 36.3541 88.74 32.0474V25.2708H84.4222V32.1741H84.3578Z" fill="#D71E48"/>
<path d="M95.9578 34.2641C94.5401 34.2641 93.5734 33.1241 93.5734 31.4774V31.4141C93.5734 29.8941 94.5401 28.6908 95.9578 28.6908C97.1178 28.6908 97.7623 29.3241 98.2778 30.2108L101.758 28.1841C100.662 26.2841 98.7934 24.9541 96.0223 24.9541C92.2201 24.9541 89.2556 27.7408 89.2556 31.4774V31.5408C89.2556 35.4041 92.3489 38.0008 95.8289 38.0008C98.9867 38.0008 100.791 36.4808 101.822 34.6441L98.3423 32.6808C97.8267 33.6308 97.1823 34.2641 95.9578 34.2641Z" fill="#D71E48"/>
<path d="M116 25.2708H110.973L106.527 30.9708V25.2708H102.338V37.7474H106.527V35.0874V32.0474L110.973 37.7474H116L111.167 31.4774L116 25.2708Z" fill="#D71E48"/>
<path d="M58.3222 25.2708L53.8755 30.9708V25.2708H49.6222V37.7474H53.8755V35.0874V32.0474L58.3222 37.7474H63.3489L58.5155 31.4774L63.3489 25.2708H58.3222Z" fill="#D71E48"/>
</g>
<defs>
<clipPath id="clip0_692_41">
<rect width="116" height="38" fill="white"/>
</clipPath>
</defs>
</svg>
