<svg width="1440" height="74" viewBox="0 0 1440 74" fill="none" xmlns="http://www.w3.org/2000/svg">
<g filter="url(#filter0_b_474_2832)">
<mask id="path-1-inside-1_474_2832" fill="white">
<path d="M0 0H1440V72H0V0Z"/>
</mask>
<path d="M0 0H1440V72H0V0Z" fill="white" fill-opacity="0.02"/>
<g clip-path="url(#clip0_474_2832)">
<path d="M145.891 17.6966C145.182 17.8233 144.409 17.95 143.7 18.14C141.316 17.4433 138.48 17 135.258 17.3166C135.258 17.2533 139.898 16.43 145.891 17.6966ZM164 29.0966C162.002 26.5 159.811 24.41 157.62 22.8266C156.396 23.08 154.591 23.5233 153.044 23.9666C154.011 24.98 154.462 25.6766 154.462 25.6766C130.167 25.6133 112.38 38.4066 112.38 38.4066C134.807 32.0733 155.558 34.0366 155.558 34.0366L153.367 36.1266L158.393 33.72L150.66 30.8066C157.427 27.64 164 29.0966 164 29.0966ZM149.049 18.52C148.018 18.71 146.922 18.9633 146.278 19.09C148.018 19.85 149.436 20.8 150.596 21.75C151.498 21.4333 152.722 21.0533 154.204 20.6733C152.464 19.7233 150.724 19.0266 149.049 18.52Z" fill="#D71E48"/>
<path d="M58.44 48.2242C59.7933 47.7809 60.6956 46.8309 60.6956 45.3742V45.3109C60.6956 44.4242 60.3733 43.7909 59.9222 43.3475C59.1489 42.5875 58.0533 42.2075 56.3133 42.2075H49.2244H48L48.7089 45.3742H49.16V54.6842H56.1844C59.4067 54.6842 61.0822 53.2275 61.0822 51.2009V51.1375C61.1467 49.5542 60.0511 48.6675 58.44 48.2242ZM53.3489 45.4375H55.1533C56.0556 45.4375 56.5067 45.7542 56.5067 46.3242V46.3875C56.5067 46.9575 56.0556 47.2742 55.1533 47.2742H53.3489V45.4375ZM56.8289 50.6942C56.8289 51.2009 56.3778 51.5809 55.4111 51.5809H53.3489V49.7442H55.4756C56.3778 49.7442 56.8289 50.1242 56.8289 50.6942Z" fill="#D71E48"/>
<path d="M65.9156 42.2708H61.6622V54.7474H70.8133V51.1374H65.9156V42.2708Z" fill="#D71E48"/>
<path d="M76.4201 42.144L71.0712 54.684H75.5823L76.0334 53.544H80.9312L81.3823 54.684H86.0223L80.6734 42.144H76.4201ZM79.6423 49.9974H77.3867L78.5467 47.0207L79.6423 49.9974Z" fill="#D71E48"/>
<path d="M91.3067 51.2641C89.8889 51.2641 88.9223 50.1241 88.9223 48.4774V48.4141C88.9223 46.8941 89.8889 45.6908 91.3067 45.6908C92.4667 45.6908 93.1112 46.3241 93.6267 47.2108L97.1067 45.1841C96.0112 43.2841 94.1423 41.9541 91.3712 41.9541C87.5689 41.9541 84.6045 44.7408 84.6045 48.4774V48.5408C84.6045 52.4041 87.6978 55.0008 91.1778 55.0008C94.3356 55.0008 96.1401 53.4808 97.1712 51.6441L93.6912 49.6808C93.1756 50.6308 92.5312 51.2641 91.3067 51.2641Z" fill="#D71E48"/>
<path d="M121.144 48.2242C122.498 47.7809 123.4 46.8309 123.4 45.3742V45.3109C123.4 44.4242 123.078 43.7909 122.627 43.3475C121.853 42.5875 120.758 42.2075 119.018 42.2075H111.929V54.6842H118.953C122.176 54.6842 123.851 53.2275 123.851 51.2009V51.1375C123.787 49.5542 122.756 48.6675 121.144 48.2242ZM116.053 45.4375H117.858C118.76 45.4375 119.211 45.7542 119.211 46.3242V46.3875C119.211 46.9575 118.76 47.2742 117.858 47.2742H115.989V45.4375H116.053ZM119.533 50.6942C119.533 51.2009 119.082 51.5809 118.116 51.5809H115.989V49.7442H118.116C119.082 49.7442 119.533 50.1242 119.533 50.6942Z" fill="#D71E48"/>
<path d="M132.358 49.1741C132.358 50.6941 131.52 51.3274 130.424 51.3274C129.264 51.3274 128.491 50.6941 128.491 49.1108V42.2708H124.173V49.1741C124.173 53.2907 126.622 55.0007 130.424 55.0007C134.227 55.0007 136.74 53.3541 136.74 49.0474V42.2708H132.422V49.1741H132.358Z" fill="#D71E48"/>
<path d="M143.958 51.2641C142.54 51.2641 141.573 50.1241 141.573 48.4774V48.4141C141.573 46.8941 142.54 45.6908 143.958 45.6908C145.118 45.6908 145.762 46.3241 146.278 47.2108L149.758 45.1841C148.662 43.2841 146.793 41.9541 144.022 41.9541C140.22 41.9541 137.256 44.7408 137.256 48.4774V48.5408C137.256 52.4041 140.349 55.0008 143.829 55.0008C146.987 55.0008 148.791 53.4808 149.822 51.6441L146.342 49.6808C145.827 50.6308 145.182 51.2641 143.958 51.2641Z" fill="#D71E48"/>
<path d="M164 42.2708H158.973L154.527 47.9708V42.2708H150.338V54.7474H154.527V52.0874V49.0474L158.973 54.7474H164L159.167 48.4774L164 42.2708Z" fill="#D71E48"/>
<path d="M106.322 42.2708L101.876 47.9708V42.2708H97.6222V54.7474H101.876V52.0874V49.0474L106.322 54.7474H111.349L106.516 48.4774L111.349 42.2708H106.322Z" fill="#D71E48"/>
</g>
<line x1="174.5" y1="43" x2="174.5" y2="53" stroke="white"/>
<path d="M184 54.7309V42.2496H192.58V45.5304H187.611V47.4383H192.026V50.5764H187.611V54.7309H184Z" fill="white"/>
<path d="M194.823 54.7309V42.2496H198.433V54.7309H194.823Z" fill="white"/>
<path d="M201.177 54.7309V42.2496H204.787L209.167 48.9539V42.2496H212.652V54.7309H209.042L204.662 47.9197V54.7309H201.177Z" fill="white"/>
<path d="M219.962 54.9984C218.961 54.9984 217.987 54.8468 217.039 54.5437C216.098 54.2406 215.299 53.8038 214.644 53.2332L216.315 50.5764C216.56 50.8617 216.887 51.1114 217.298 51.3253C217.71 51.5393 218.15 51.7057 218.621 51.8246C219.092 51.9434 219.539 52.0029 219.962 52.0029C220.438 52.0029 220.832 51.9345 221.141 51.7978C221.451 51.6611 221.606 51.468 221.606 51.2183C221.606 50.9747 221.487 50.7756 221.249 50.621C221.01 50.4605 220.569 50.2971 219.926 50.1307L218.996 49.8811C217.638 49.5126 216.667 49.0014 216.083 48.3476C215.499 47.6879 215.207 46.9093 215.207 46.0119C215.207 45.4472 215.329 44.9212 215.573 44.4339C215.824 43.9465 216.169 43.5215 216.61 43.159C217.057 42.7905 217.581 42.5052 218.183 42.3031C218.785 42.101 219.437 42 220.14 42C221.153 42 222.095 42.1486 222.965 42.4458C223.841 42.737 224.538 43.1411 225.056 43.6582L223.322 46.2436C223.114 46 222.846 45.786 222.518 45.6018C222.19 45.4116 221.83 45.263 221.436 45.156C221.043 45.049 220.647 44.9955 220.248 44.9955C219.932 44.9955 219.658 45.0341 219.425 45.1114C219.193 45.1827 219.011 45.2838 218.88 45.4145C218.755 45.5393 218.693 45.685 218.693 45.8514C218.693 46 218.746 46.1218 218.854 46.2169C218.961 46.312 219.137 46.4041 219.381 46.4933C219.631 46.5824 219.968 46.6894 220.391 46.8142L221.302 47.0817C222.661 47.4799 223.638 47.9702 224.234 48.5527C224.83 49.1352 225.128 49.887 225.128 50.8082C225.128 51.6344 224.913 52.3625 224.484 52.9925C224.055 53.6225 223.453 54.1158 222.679 54.4724C221.904 54.8231 220.998 54.9984 219.962 54.9984Z" fill="white"/>
<path d="M226.924 54.7309V42.2496H236.201V45.3521H230.535V46.9747H235.182V49.8097H230.535V51.5928H236.273V54.7309H226.924Z" fill="white"/>
<path d="M238.55 54.7309V42.2496H243.859C244.836 42.2496 245.688 42.4012 246.415 42.7043C247.148 43.0074 247.714 43.4502 248.113 44.0327C248.518 44.6092 248.721 45.3105 248.721 46.1367C248.721 46.7429 248.613 47.2748 248.399 47.7325C248.184 48.1901 247.898 48.5765 247.541 48.8915C247.183 49.2065 246.79 49.4531 246.361 49.6314L249.453 54.7309H245.199L242.858 50.4338H242.161V54.7309H238.55ZM242.161 47.5988H243.483C243.978 47.5988 244.365 47.5096 244.645 47.3313C244.931 47.153 245.074 46.838 245.074 46.3863C245.074 45.9286 244.931 45.6136 244.645 45.4413C244.365 45.263 243.984 45.1738 243.501 45.1738H242.161V47.5988Z" fill="white"/>
<path d="M253.77 54.7309L249.284 42.2496H253.359L255.915 50.2377L258.471 42.2496H262.475L257.971 54.7309H253.77Z" fill="white"/>
<path d="M263.651 54.7309V42.2496H272.928V45.3521H267.262V46.9747H271.91V49.8097H267.262V51.5928H273V54.7309H263.651Z" fill="white"/>
<rect width="117" height="40" rx="8" transform="matrix(1 0 0 -1 1275 56)" fill="url(#paint0_linear_474_2832)"/>
<path d="M1297.26 41.74C1294.06 41.74 1291.58 39.132 1291.58 35.74C1291.58 32.364 1294.06 29.772 1297.26 29.772C1300.14 29.772 1302.44 31.692 1302.87 34.524H1301C1300.68 32.668 1299.18 31.356 1297.27 31.356C1295 31.356 1293.4 33.196 1293.4 35.74C1293.4 38.316 1295 40.156 1297.27 40.156C1299.18 40.156 1300.68 38.828 1301 36.972H1302.87C1302.44 39.82 1300.14 41.74 1297.26 41.74ZM1308.13 41.66C1305.73 41.66 1303.97 39.772 1303.97 37.26C1303.97 34.748 1305.73 32.86 1308.13 32.86C1310.53 32.86 1312.29 34.748 1312.29 37.26C1312.29 39.772 1310.53 41.66 1308.13 41.66ZM1308.13 40.236C1309.52 40.236 1310.62 39.116 1310.62 37.26C1310.62 35.404 1309.52 34.3 1308.13 34.3C1306.73 34.3 1305.65 35.404 1305.65 37.26C1305.65 39.116 1306.73 40.236 1308.13 40.236ZM1315.55 36.716V41.5H1313.93V33.02H1315.44V34.428C1316.01 33.484 1316.97 32.86 1318.14 32.86C1319.88 32.86 1321.04 33.98 1321.04 36.012V41.5H1319.42V36.556C1319.42 35.1 1318.78 34.284 1317.58 34.284C1316.48 34.284 1315.55 35.212 1315.55 36.716ZM1327.94 39.932V41.356C1327.44 41.58 1327.01 41.66 1326.5 41.66C1324.93 41.66 1323.84 40.812 1323.84 38.94V34.396H1321.97V33.02H1323.84V30.508H1325.46V33.02H1328.02V34.396H1325.46V38.572C1325.46 39.74 1326.02 40.156 1326.88 40.156C1327.26 40.156 1327.6 40.092 1327.94 39.932ZM1334.69 41.5V40.188C1334.17 41.132 1333.22 41.66 1331.97 41.66C1330.21 41.66 1329.06 40.652 1329.06 39.1C1329.06 37.436 1330.39 36.572 1332.92 36.572C1333.41 36.572 1333.81 36.588 1334.5 36.668V36.044C1334.5 34.828 1333.85 34.14 1332.73 34.14C1331.54 34.14 1330.82 34.844 1330.77 36.028H1329.3C1329.38 34.124 1330.74 32.86 1332.73 32.86C1334.82 32.86 1336.04 34.044 1336.04 36.06V41.5H1334.69ZM1330.6 39.052C1330.6 39.932 1331.25 40.508 1332.29 40.508C1333.65 40.508 1334.5 39.66 1334.5 38.364V37.676C1333.88 37.596 1333.43 37.58 1333.01 37.58C1331.4 37.58 1330.6 38.06 1330.6 39.052ZM1341.54 41.676C1339.22 41.676 1337.59 39.852 1337.59 37.26C1337.59 34.7 1339.25 32.86 1341.54 32.86C1343.64 32.86 1345.16 34.252 1345.46 36.46H1343.77C1343.59 35.1 1342.74 34.284 1341.56 34.284C1340.17 34.284 1339.25 35.468 1339.25 37.26C1339.25 39.068 1340.17 40.236 1341.56 40.236C1342.76 40.236 1343.59 39.436 1343.78 38.06H1345.46C1345.17 40.3 1343.67 41.676 1341.54 41.676ZM1351.87 39.932V41.356C1351.38 41.58 1350.94 41.66 1350.43 41.66C1348.86 41.66 1347.78 40.812 1347.78 38.94V34.396H1345.9V33.02H1347.78V30.508H1349.39V33.02H1351.95V34.396H1349.39V38.572C1349.39 39.74 1349.95 40.156 1350.82 40.156C1351.2 40.156 1351.54 40.092 1351.87 39.932ZM1365.81 30.012V37.372C1365.81 40.012 1364.12 41.74 1361.37 41.74C1358.61 41.74 1356.93 40.012 1356.93 37.372V30.012H1358.69V37.42C1358.69 39.084 1359.67 40.156 1361.37 40.156C1363.08 40.156 1364.05 39.084 1364.05 37.42V30.012H1365.81ZM1374.86 38.972C1374.86 40.636 1373.56 41.66 1371.3 41.66C1369.06 41.66 1367.74 40.556 1367.58 38.732H1369.13C1369.19 39.788 1370.04 40.444 1371.34 40.444C1372.47 40.444 1373.22 40.044 1373.22 39.244C1373.22 38.54 1372.79 38.236 1371.74 38.028L1370.36 37.772C1368.79 37.468 1367.91 36.668 1367.91 35.388C1367.91 33.9 1369.21 32.86 1371.18 32.86C1373.21 32.86 1374.58 33.948 1374.73 35.692H1373.18C1373.08 34.668 1372.33 34.076 1371.19 34.076C1370.17 34.076 1369.48 34.508 1369.48 35.244C1369.48 35.932 1369.91 36.252 1370.94 36.444L1372.38 36.716C1374.06 37.02 1374.86 37.756 1374.86 38.972Z" fill="white"/>
<rect x="0.5" y="-0.5" width="116" height="39" rx="7.5" transform="matrix(1 0 0 -1 1275 55)" stroke="white" stroke-opacity="0.2"/>
<path d="M526.112 42L523.424 32.144L520.72 42H519.472L516.448 30.512H517.616L520.096 40.256L522.784 30.512H524.064L526.72 40.288L529.216 30.512H530.4L527.376 42H526.112ZM533.149 37.088V42H532.029V30.512H533.149V35.12C533.677 34.112 534.637 33.408 535.853 33.408C537.613 33.408 538.749 34.528 538.749 36.528V42H537.629V36.912C537.629 35.296 536.893 34.384 535.516 34.384C534.205 34.384 533.149 35.52 533.149 37.088ZM546.291 42V40.464C545.795 41.52 544.771 42.16 543.459 42.16C541.715 42.16 540.579 41.184 540.579 39.664C540.579 38.016 541.891 37.152 544.451 37.152C544.963 37.152 545.347 37.184 546.179 37.248V36.544C546.179 35.136 545.427 34.304 544.147 34.304C542.771 34.304 541.907 35.152 541.891 36.528H540.867C540.915 34.656 542.211 33.408 544.131 33.408C546.099 33.408 547.251 34.56 547.251 36.512V42H546.291ZM541.651 39.632C541.651 40.656 542.435 41.344 543.619 41.344C545.187 41.344 546.179 40.32 546.179 38.736V37.984C545.459 37.92 544.963 37.904 544.499 37.904C542.579 37.904 541.651 38.464 541.651 39.632ZM553.896 40.928V41.92C553.464 42.096 553.096 42.16 552.68 42.16C551.288 42.16 550.216 41.44 550.216 39.616V34.512H548.232V33.568H550.216V31.072H551.336V33.568H553.976V34.512H551.336V39.376C551.336 40.688 551.976 41.136 552.904 41.136C553.256 41.136 553.544 41.072 553.896 40.928ZM567.893 42L565.205 32.144L562.501 42H561.253L558.229 30.512H559.397L561.877 40.256L564.565 30.512H565.845L568.501 40.288L570.997 30.512H572.181L569.157 42H567.893ZM576.372 42.16C574.004 42.16 572.436 40.384 572.436 37.712C572.436 35.248 574.068 33.408 576.308 33.408C578.708 33.408 580.276 35.344 580.084 38.048H573.556C573.652 40.048 574.708 41.28 576.356 41.28C577.764 41.28 578.74 40.496 579.012 39.152H580.116C579.732 41.024 578.308 42.16 576.372 42.16ZM576.292 34.272C574.772 34.272 573.7 35.44 573.556 37.28H578.916C578.82 35.392 577.844 34.272 576.292 34.272ZM590.495 42.24C587.167 42.24 584.703 39.584 584.703 36.24C584.703 32.896 587.167 30.272 590.495 30.272C593.823 30.272 596.303 32.896 596.303 36.24C596.303 39.584 593.823 42.24 590.495 42.24ZM590.495 41.168C593.215 41.168 595.055 38.992 595.055 36.24C595.055 33.488 593.215 31.344 590.495 31.344C587.791 31.344 585.935 33.488 585.935 36.24C585.935 38.992 587.791 41.168 590.495 41.168ZM599.994 42H598.874V34.512H596.89V33.568H598.874V32.8C598.874 31.248 599.722 30.384 601.194 30.384C601.578 30.384 601.914 30.448 602.202 30.56V31.488C601.93 31.376 601.674 31.36 601.386 31.36C600.49 31.36 599.994 31.808 599.994 32.8V33.568H602.474V34.512H599.994V42ZM606.166 42H605.046V34.512H603.062V33.568H605.046V32.8C605.046 31.248 605.894 30.384 607.366 30.384C607.75 30.384 608.086 30.448 608.374 30.56V31.488C608.102 31.376 607.846 31.36 607.558 31.36C606.662 31.36 606.166 31.808 606.166 32.8V33.568H608.646V34.512H606.166V42ZM613.012 42.16C610.644 42.16 609.076 40.384 609.076 37.712C609.076 35.248 610.708 33.408 612.948 33.408C615.348 33.408 616.916 35.344 616.724 38.048H610.196C610.292 40.048 611.348 41.28 612.996 41.28C614.404 41.28 615.38 40.496 615.652 39.152H616.756C616.372 41.024 614.948 42.16 613.012 42.16ZM612.932 34.272C611.412 34.272 610.34 35.44 610.196 37.28H615.556C615.46 35.392 614.484 34.272 612.932 34.272ZM619.695 37.488V42H618.575V33.568H619.615V35.488C620.191 34.24 621.439 33.44 622.831 33.44V34.608C621.055 34.544 619.695 35.648 619.695 37.488Z" fill="#C2C2C2"/>
<path d="M686.51 42L683.822 32.144L681.118 42H679.87L676.846 30.512H678.014L680.494 40.256L683.182 30.512H684.462L687.118 40.288L689.614 30.512H690.798L687.774 42H686.51ZM693.547 37.088V42H692.427V30.512H693.547V35.12C694.075 34.112 695.035 33.408 696.251 33.408C698.011 33.408 699.147 34.528 699.147 36.528V42H698.027V36.912C698.027 35.296 697.291 34.384 695.915 34.384C694.603 34.384 693.547 35.52 693.547 37.088ZM707.689 33.568L703.369 45.088H702.169L703.401 41.888L700.057 33.568H701.257L703.977 40.544L706.553 33.568H707.689ZM717.373 42.24C714.173 42.24 711.757 39.632 711.757 36.24C711.757 32.864 714.173 30.272 717.373 30.272C720.109 30.272 722.365 32.112 722.813 34.848H721.549C721.181 32.8 719.485 31.344 717.373 31.344C714.829 31.344 712.989 33.424 712.989 36.24C712.989 39.088 714.829 41.168 717.373 41.168C719.501 41.168 721.197 39.696 721.549 37.648H722.813C722.365 40.384 720.109 42.24 717.373 42.24ZM725.797 37.088V42H724.677V30.512H725.797V35.12C726.325 34.112 727.285 33.408 728.501 33.408C730.261 33.408 731.397 34.528 731.397 36.528V42H730.277V36.912C730.277 35.296 729.541 34.384 728.165 34.384C726.853 34.384 725.797 35.52 725.797 37.088ZM737.131 42.16C734.811 42.16 733.131 40.32 733.131 37.776C733.131 35.248 734.811 33.424 737.131 33.424C739.467 33.424 741.147 35.248 741.147 37.776C741.147 40.32 739.467 42.16 737.131 42.16ZM737.131 41.184C738.779 41.184 740.011 39.872 740.011 37.776C740.011 35.712 738.779 34.4 737.131 34.4C735.499 34.4 734.267 35.712 734.267 37.776C734.267 39.872 735.499 41.184 737.131 41.184ZM746.334 42.16C744.014 42.16 742.334 40.32 742.334 37.776C742.334 35.248 744.014 33.424 746.334 33.424C748.67 33.424 750.35 35.248 750.35 37.776C750.35 40.32 748.67 42.16 746.334 42.16ZM746.334 41.184C747.982 41.184 749.214 39.872 749.214 37.776C749.214 35.712 747.982 34.4 746.334 34.4C744.702 34.4 743.47 35.712 743.47 37.776C743.47 39.872 744.702 41.184 746.334 41.184ZM758.465 39.648C758.465 41.2 757.217 42.16 755.137 42.16C753.041 42.16 751.761 41.104 751.601 39.36H752.673C752.753 40.56 753.697 41.312 755.137 41.312C756.513 41.312 757.345 40.784 757.345 39.824C757.345 38.992 756.865 38.608 755.585 38.352L754.369 38.112C752.769 37.808 751.921 37.024 751.921 35.808C751.921 34.4 753.169 33.408 755.009 33.408C756.945 33.408 758.225 34.448 758.353 36.128H757.297C757.185 34.96 756.337 34.272 755.009 34.272C753.825 34.272 753.009 34.832 753.009 35.712C753.009 36.544 753.521 36.944 754.769 37.184L756.033 37.424C757.713 37.744 758.465 38.448 758.465 39.648ZM763.723 42.16C761.355 42.16 759.787 40.384 759.787 37.712C759.787 35.248 761.419 33.408 763.659 33.408C766.059 33.408 767.627 35.344 767.435 38.048H760.907C761.003 40.048 762.059 41.28 763.707 41.28C765.115 41.28 766.091 40.496 766.363 39.152H767.467C767.083 41.024 765.659 42.16 763.723 42.16ZM763.643 34.272C762.123 34.272 761.051 35.44 760.907 37.28H766.267C766.171 35.392 765.195 34.272 763.643 34.272ZM781.078 30.512V38.064C781.078 40.64 779.414 42.24 776.886 42.24C774.342 42.24 772.678 40.64 772.678 38.064V30.512H773.878V38.128C773.878 40 775.11 41.168 776.886 41.168C778.662 41.168 779.878 40 779.878 38.128V30.512H781.078ZM789.856 39.648C789.856 41.2 788.608 42.16 786.528 42.16C784.432 42.16 783.152 41.104 782.992 39.36H784.064C784.144 40.56 785.088 41.312 786.528 41.312C787.904 41.312 788.736 40.784 788.736 39.824C788.736 38.992 788.256 38.608 786.976 38.352L785.76 38.112C784.16 37.808 783.312 37.024 783.312 35.808C783.312 34.4 784.56 33.408 786.4 33.408C788.336 33.408 789.616 34.448 789.744 36.128H788.688C788.576 34.96 787.728 34.272 786.4 34.272C785.216 34.272 784.4 34.832 784.4 35.712C784.4 36.544 784.912 36.944 786.16 37.184L787.424 37.424C789.104 37.744 789.856 38.448 789.856 39.648Z" fill="#C2C2C2"/>
<path d="M850.525 37.776H847.949V42H846.749V30.512H850.525C852.893 30.512 854.509 31.808 854.509 34.128C854.509 36.448 852.893 37.776 850.525 37.776ZM850.509 31.536H847.949V36.752H850.509C852.221 36.752 853.309 35.808 853.309 34.128C853.309 32.464 852.221 31.536 850.509 31.536ZM859.498 42.16C857.178 42.16 855.498 40.32 855.498 37.776C855.498 35.248 857.178 33.424 859.498 33.424C861.834 33.424 863.514 35.248 863.514 37.776C863.514 40.32 861.834 42.16 859.498 42.16ZM859.498 41.184C861.146 41.184 862.378 39.872 862.378 37.776C862.378 35.712 861.146 34.4 859.498 34.4C857.866 34.4 856.634 35.712 856.634 37.776C856.634 39.872 857.866 41.184 859.498 41.184ZM866.445 42H865.325V30.512H866.445V42ZM870.328 31.616C870.328 32.112 869.96 32.464 869.416 32.464C868.888 32.464 868.52 32.112 868.52 31.616C868.52 31.136 868.888 30.784 869.416 30.784C869.96 30.784 870.328 31.136 870.328 31.616ZM869.992 42H868.872V33.568H869.992V42ZM875.571 42.176C873.347 42.176 871.795 40.368 871.795 37.776C871.795 35.216 873.363 33.408 875.571 33.408C877.539 33.408 878.947 34.72 879.283 36.832H878.147C877.891 35.296 876.931 34.384 875.571 34.384C874.003 34.384 872.931 35.76 872.931 37.776C872.931 39.824 874.003 41.2 875.571 41.2C876.947 41.2 877.891 40.304 878.147 38.736H879.283C878.979 40.88 877.555 42.176 875.571 42.176ZM882.547 31.616C882.547 32.112 882.179 32.464 881.635 32.464C881.107 32.464 880.739 32.112 880.739 31.616C880.739 31.136 881.107 30.784 881.635 30.784C882.179 30.784 882.547 31.136 882.547 31.616ZM882.211 42H881.091V33.568H882.211V42ZM887.95 42.16C885.582 42.16 884.014 40.384 884.014 37.712C884.014 35.248 885.646 33.408 887.886 33.408C890.286 33.408 891.854 35.344 891.662 38.048H885.134C885.23 40.048 886.286 41.28 887.934 41.28C889.342 41.28 890.318 40.496 890.59 39.152H891.694C891.31 41.024 889.886 42.16 887.95 42.16ZM887.87 34.272C886.35 34.272 885.278 35.44 885.134 37.28H890.494C890.398 35.392 889.422 34.272 887.87 34.272ZM899.817 39.648C899.817 41.2 898.569 42.16 896.489 42.16C894.393 42.16 893.113 41.104 892.953 39.36H894.025C894.105 40.56 895.049 41.312 896.489 41.312C897.865 41.312 898.697 40.784 898.697 39.824C898.697 38.992 898.217 38.608 896.937 38.352L895.721 38.112C894.121 37.808 893.273 37.024 893.273 35.808C893.273 34.4 894.521 33.408 896.361 33.408C898.297 33.408 899.577 34.448 899.705 36.128H898.649C898.537 34.96 897.689 34.272 896.361 34.272C895.177 34.272 894.361 34.832 894.361 35.712C894.361 36.544 894.873 36.944 896.121 37.184L897.385 37.424C899.065 37.744 899.817 38.448 899.817 39.648Z" fill="#C2C2C2"/>
<path d="M966.705 42L965.505 38.816H960.145L958.929 42H957.745L962.209 30.512H963.521L967.969 42H966.705ZM962.833 31.792L960.513 37.84H965.121L962.833 31.792ZM977.35 37.776C977.35 40.368 975.894 42.16 973.638 42.16C972.342 42.16 971.254 41.456 970.662 40.224V42H969.622V30.512H970.742V35.344C971.286 34.112 972.358 33.408 973.638 33.408C975.894 33.408 977.35 35.184 977.35 37.776ZM976.214 37.776C976.214 35.632 975.11 34.384 973.462 34.384C971.878 34.384 970.726 35.616 970.726 37.744C970.726 39.856 971.846 41.184 973.462 41.184C975.11 41.184 976.214 39.92 976.214 37.776ZM982.53 42.16C980.21 42.16 978.53 40.32 978.53 37.776C978.53 35.248 980.21 33.424 982.53 33.424C984.866 33.424 986.546 35.248 986.546 37.776C986.546 40.32 984.866 42.16 982.53 42.16ZM982.53 41.184C984.178 41.184 985.41 39.872 985.41 37.776C985.41 35.712 984.178 34.4 982.53 34.4C980.898 34.4 979.666 35.712 979.666 37.776C979.666 39.872 980.898 41.184 982.53 41.184ZM993.749 38.592V33.568H994.853V42H993.813V40.48C993.381 41.456 992.357 42.16 991.125 42.16C989.413 42.16 988.277 41.184 988.277 39.056V33.568H989.397V38.816C989.397 40.528 990.245 41.184 991.429 41.184C992.773 41.184 993.749 40.096 993.749 38.592ZM1001.61 40.928V41.92C1001.18 42.096 1000.81 42.16 1000.4 42.16C999.007 42.16 997.935 41.44 997.935 39.616V34.512H995.95V33.568H997.935V31.072H999.055V33.568H1001.69V34.512H999.055V39.376C999.055 40.688 999.695 41.136 1000.62 41.136C1000.97 41.136 1001.26 41.072 1001.61 40.928ZM1015.18 30.512V38.064C1015.18 40.64 1013.52 42.24 1010.99 42.24C1008.44 42.24 1006.78 40.64 1006.78 38.064V30.512H1007.98V38.128C1007.98 40 1009.21 41.168 1010.99 41.168C1012.76 41.168 1013.98 40 1013.98 38.128V30.512H1015.18ZM1023.96 39.648C1023.96 41.2 1022.71 42.16 1020.63 42.16C1018.53 42.16 1017.25 41.104 1017.09 39.36H1018.17C1018.25 40.56 1019.19 41.312 1020.63 41.312C1022.01 41.312 1022.84 40.784 1022.84 39.824C1022.84 38.992 1022.36 38.608 1021.08 38.352L1019.86 38.112C1018.26 37.808 1017.41 37.024 1017.41 35.808C1017.41 34.4 1018.66 33.408 1020.5 33.408C1022.44 33.408 1023.72 34.448 1023.85 36.128H1022.79C1022.68 34.96 1021.83 34.272 1020.5 34.272C1019.32 34.272 1018.5 34.832 1018.5 35.712C1018.5 36.544 1019.01 36.944 1020.26 37.184L1021.53 37.424C1023.21 37.744 1023.96 38.448 1023.96 39.648Z" fill="#C2C2C2"/>
<path d="M418.757 42H416.325V30.512H418.757V35.04H423.733V30.512H426.165V42H423.733V37.136H418.757V42ZM432.112 42.16C429.632 42.16 427.776 40.208 427.776 37.728C427.776 35.232 429.632 33.296 432.112 33.296C434.592 33.296 436.448 35.232 436.448 37.728C436.448 40.208 434.592 42.16 432.112 42.16ZM432.112 40.192C433.216 40.192 434.16 39.312 434.16 37.728C434.16 36.144 433.216 35.28 432.112 35.28C431.008 35.28 430.064 36.144 430.064 37.728C430.064 39.312 431.008 40.192 432.112 40.192ZM440.091 42H437.867V33.456H439.915V34.672C440.539 33.808 441.339 33.296 442.475 33.296C443.643 33.296 444.539 33.84 444.971 34.816C445.643 33.872 446.507 33.296 447.787 33.296C449.515 33.296 450.683 34.432 450.683 36.48V42H448.475V37.184C448.475 35.984 447.963 35.264 446.987 35.264C446.107 35.264 445.387 35.952 445.387 37.232V42H443.179V37.184C443.179 35.984 442.667 35.264 441.691 35.264C440.795 35.264 440.091 35.952 440.091 37.232V42ZM456.298 42.144C453.738 42.144 452.026 40.368 452.026 37.696C452.026 35.152 453.802 33.296 456.266 33.296C458.97 33.296 460.762 35.488 460.362 38.272H454.298C454.442 39.664 455.114 40.432 456.25 40.432C457.226 40.432 457.882 39.952 458.138 39.104H460.346C459.866 41.04 458.378 42.144 456.298 42.144ZM456.218 34.928C455.178 34.928 454.522 35.6 454.33 36.864H458.01C457.946 35.68 457.274 34.928 456.218 34.928Z" fill="white"/>
<g filter="url(#filter1_f_474_2832)">
<rect x="408" y="-14" width="60" height="27" fill="white" fill-opacity="0.92"/>
</g>
<path d="M1440 71H0V73H1440V71Z" fill="url(#paint1_linear_474_2832)" mask="url(#path-1-inside-1_474_2832)"/>
</g>
<defs>
<filter id="filter0_b_474_2832" x="-50" y="-64" width="1540" height="186" filterUnits="userSpaceOnUse" color-interpolation-filters="sRGB">
<feFlood flood-opacity="0" result="BackgroundImageFix"/>
<feGaussianBlur in="BackgroundImageFix" stdDeviation="25"/>
<feComposite in2="SourceAlpha" operator="in" result="effect1_backgroundBlur_474_2832"/>
<feBlend mode="normal" in="SourceGraphic" in2="effect1_backgroundBlur_474_2832" result="shape"/>
</filter>
<filter id="filter1_f_474_2832" x="347" y="-75" width="182" height="149" filterUnits="userSpaceOnUse" color-interpolation-filters="sRGB">
<feFlood flood-opacity="0" result="BackgroundImageFix"/>
<feBlend mode="normal" in="SourceGraphic" in2="BackgroundImageFix" result="shape"/>
<feGaussianBlur stdDeviation="30.5" result="effect1_foregroundBlur_474_2832"/>
</filter>
<linearGradient id="paint0_linear_474_2832" x1="-42.7836" y1="282" x2="212.59" y2="130.942" gradientUnits="userSpaceOnUse">
<stop stop-color="#8DFFFF"/>
<stop offset="0.974653" stop-color="#8DFFFF" stop-opacity="0"/>
</linearGradient>
<linearGradient id="paint1_linear_474_2832" x1="0" y1="72" x2="1440" y2="72" gradientUnits="userSpaceOnUse">
<stop stop-color="white" stop-opacity="0"/>
<stop offset="0.498527" stop-color="white" stop-opacity="0.501473"/>
<stop offset="1" stop-color="white" stop-opacity="0"/>
</linearGradient>
<clipPath id="clip0_474_2832">
<rect width="116" height="38" fill="white" transform="translate(48 17)"/>
</clipPath>
</defs>
</svg>
