<svg width="19" height="19" viewBox="0 0 19 19" fill="none" xmlns="http://www.w3.org/2000/svg">
<path fill-rule="evenodd" clip-rule="evenodd" d="M0.5 9.5C0.5 5.90486 0.5 4.10729 1.35669 2.81255C1.73925 2.23439 2.23439 1.73925 2.81255 1.35669C4.10729 0.5 5.90486 0.5 9.5 0.5C13.0951 0.5 14.8927 0.5 16.1874 1.35669C16.7656 1.73925 17.2608 2.23439 17.6433 2.81255C18.5 4.10729 18.5 5.90486 18.5 9.5C18.5 13.0951 18.5 14.8927 17.6433 16.1874C17.2608 16.7656 16.7656 17.2608 16.1874 17.6433C14.8927 18.5 13.0951 18.5 9.5 18.5C5.90486 18.5 4.10729 18.5 2.81255 17.6433C2.23439 17.2608 1.73925 16.7656 1.35669 16.1874C0.5 14.8927 0.5 13.0951 0.5 9.5ZM14.1587 9.50316C14.1587 12.0765 12.0726 14.1626 9.49925 14.1626C6.92593 14.1626 4.83984 12.0765 4.83984 9.50316C4.83984 6.92984 6.92593 4.84375 9.49925 4.84375C12.0726 4.84375 14.1587 6.92984 14.1587 9.50316ZM9.49925 12.5862C11.202 12.5862 12.5823 11.2059 12.5823 9.50316C12.5823 7.80046 11.202 6.42016 9.49925 6.42016C7.79656 6.42016 6.41625 7.80046 6.41625 9.50316C6.41625 11.2059 7.79656 12.5862 9.49925 12.5862ZM14.3427 5.70527C14.9473 5.70527 15.4375 5.2151 15.4375 4.61045C15.4375 4.00579 14.9473 3.51562 14.3427 3.51562C13.738 3.51562 13.2478 4.00579 13.2478 4.61045C13.2478 5.2151 13.738 5.70527 14.3427 5.70527Z" fill="white"/>
</svg>
