<svg width="16" height="16" viewBox="0 0 16 16" fill="none" xmlns="http://www.w3.org/2000/svg">
<path fill-rule="evenodd" clip-rule="evenodd" d="M0.238403 7.9078C0.238403 4.88032 0.238403 3.36658 0.959828 2.27627C1.28198 1.7894 1.69894 1.37243 2.18582 1.05028C3.27612 0.328857 4.78986 0.328857 7.81735 0.328857C10.8448 0.328857 12.3586 0.328857 13.4489 1.05028C13.9358 1.37243 14.3527 1.7894 14.6749 2.27627C15.3963 3.36658 15.3963 4.88032 15.3963 7.9078C15.3963 10.9353 15.3963 12.449 14.6749 13.5393C14.3527 14.0262 13.9358 14.4432 13.4489 14.7653C12.3586 15.4868 10.8448 15.4868 7.81735 15.4868C4.78986 15.4868 3.27612 15.4868 2.18582 14.7653C1.69894 14.4432 1.28198 14.0262 0.959828 13.5393C0.238403 12.449 0.238403 10.9353 0.238403 7.9078ZM11.7404 7.91046C11.7404 10.0775 9.98373 11.8342 7.81672 11.8342C5.64971 11.8342 3.89301 10.0775 3.89301 7.91046C3.89301 5.74346 5.64971 3.98675 7.81672 3.98675C9.98373 3.98675 11.7404 5.74346 11.7404 7.91046ZM7.81672 10.5067C9.25057 10.5067 10.4129 9.34431 10.4129 7.91046C10.4129 6.47662 9.25057 5.31425 7.81672 5.31425C6.38287 5.31425 5.22051 6.47662 5.22051 7.91046C5.22051 9.34431 6.38287 10.5067 7.81672 10.5067ZM11.8954 4.71224C12.4046 4.71224 12.8173 4.29947 12.8173 3.79029C12.8173 3.28111 12.4046 2.86833 11.8954 2.86833C11.3862 2.86833 10.9734 3.28111 10.9734 3.79029C10.9734 4.29947 11.3862 4.71224 11.8954 4.71224Z" fill="white"/>
</svg>
