<svg width="16" height="15" viewBox="0 0 16 15" fill="none" xmlns="http://www.w3.org/2000/svg">
<path d="M0.764771 1.79533C0.764771 1.30925 0.935472 0.908252 1.27686 0.59232C1.61825 0.276374 2.06207 0.118408 2.6083 0.118408C3.14478 0.118408 3.57883 0.273939 3.91047 0.585029C4.25186 0.905831 4.42256 1.32384 4.42256 1.83907C4.42256 2.30569 4.25675 2.69453 3.9251 3.00563C3.58371 3.32643 3.13502 3.48683 2.57904 3.48683H2.5644C2.02792 3.48683 1.59388 3.32643 1.26223 3.00563C0.930586 2.68482 0.764771 2.28139 0.764771 1.79533ZM0.954976 14.5545V4.81378H4.2031V14.5545H0.954976ZM6.00273 14.5545H9.25085V9.11544C9.25085 8.77519 9.28987 8.51271 9.3679 8.32802C9.50445 7.99749 9.71173 7.718 9.98973 7.48956C10.2677 7.26111 10.6164 7.14689 11.0359 7.14689C12.1283 7.14689 12.6745 7.88084 12.6745 9.34875V14.5545H15.9227V8.96962C15.9227 7.53087 15.5813 6.43966 14.8985 5.69599C14.2157 4.95231 13.3134 4.58047 12.1917 4.58047C10.9334 4.58047 9.95315 5.12 9.25085 6.19906V6.22823H9.23622L9.25085 6.19906V4.81378H6.00273C6.02223 5.12486 6.03199 6.09212 6.03199 7.71558C6.03199 9.33903 6.02223 11.6187 6.00273 14.5545Z" fill="white"/>
</svg>
