<svg width="17" height="17" viewBox="0 0 17 17" fill="none" xmlns="http://www.w3.org/2000/svg">
<path d="M0.5 2.35859C0.5 1.81985 0.680185 1.37541 1.04054 1.02525C1.4009 0.675079 1.86937 0.5 2.44595 0.5C3.01223 0.5 3.47039 0.67238 3.82046 1.01717C4.18082 1.37273 4.361 1.83602 4.361 2.40707C4.361 2.92424 4.18598 3.35521 3.83591 3.7C3.47555 4.05556 3.00193 4.23333 2.41506 4.23333H2.39961C1.83333 4.23333 1.37517 4.05556 1.0251 3.7C0.675027 3.34444 0.5 2.8973 0.5 2.35859ZM0.700772 16.5V5.70404H4.12934V16.5H0.700772ZM6.02896 16.5H9.45753V10.4717C9.45753 10.0946 9.49872 9.80369 9.58108 9.59899C9.72522 9.23265 9.94402 8.92288 10.2375 8.6697C10.5309 8.41649 10.899 8.2899 11.3417 8.2899C12.4949 8.2899 13.0714 9.10336 13.0714 10.7303V16.5H16.5V10.3101C16.5 8.71548 16.1396 7.50606 15.4189 6.68182C14.6982 5.85758 13.7458 5.44545 12.5618 5.44545C11.2336 5.44545 10.1988 6.04343 9.45753 7.23939V7.27172H9.44209L9.45753 7.23939V5.70404H6.02896C6.04954 6.04882 6.05985 7.12086 6.05985 8.9202C6.05985 10.7195 6.04954 13.2461 6.02896 16.5Z" fill="white"/>
</svg>
