<svg width="28" height="28" viewBox="0 0 28 28" fill="none" xmlns="http://www.w3.org/2000/svg">
<path d="M13.9993 24.8793C13.7271 24.8793 13.4549 24.8307 13.1827 24.7335C12.9105 24.6363 12.6674 24.4904 12.4535 24.296C11.1896 23.1293 10.0716 21.9918 9.09935 20.8835C8.12713 19.7752 7.31532 18.7009 6.66393 17.6606C6.01254 16.6203 5.51671 15.6189 5.17643 14.6564C4.83615 13.6939 4.66602 12.7752 4.66602 11.9002C4.66602 8.9835 5.60421 6.65989 7.4806 4.92933C9.35699 3.19877 11.5299 2.3335 13.9993 2.3335C16.4688 2.3335 18.6417 3.19877 20.5181 4.92933C22.3945 6.65989 23.3327 8.9835 23.3327 11.9002C23.3327 12.7752 23.1625 13.6939 22.8223 14.6564C22.482 15.6189 21.9862 16.6203 21.3348 17.6606C20.6834 18.7009 19.8716 19.7752 18.8994 20.8835C17.9271 21.9918 16.8091 23.1293 15.5452 24.296C15.3313 24.4904 15.0882 24.6363 14.816 24.7335C14.5438 24.8307 14.2716 24.8793 13.9993 24.8793ZM13.9993 14.0002C14.641 14.0002 15.1903 13.7717 15.6473 13.3147C16.1042 12.8578 16.3327 12.3085 16.3327 11.6668C16.3327 11.0252 16.1042 10.4759 15.6473 10.0189C15.1903 9.56197 14.641 9.3335 13.9993 9.3335C13.3577 9.3335 12.8084 9.56197 12.3514 10.0189C11.8945 10.4759 11.666 11.0252 11.666 11.6668C11.666 12.3085 11.8945 12.8578 12.3514 13.3147C12.8084 13.7717 13.3577 14.0002 13.9993 14.0002Z" fill="white"/>
</svg>
