<svg width="28" height="28" viewBox="0 0 28 28" fill="none" xmlns="http://www.w3.org/2000/svg">
<path d="M4.66732 23.3332C4.02565 23.3332 3.47635 23.1047 3.0194 22.6478C2.56246 22.1908 2.33398 21.6415 2.33398 20.9998V6.99984C2.33398 6.35817 2.56246 5.80887 3.0194 5.35192C3.47635 4.89498 4.02565 4.6665 4.66732 4.6665H23.334C23.9756 4.6665 24.525 4.89498 24.9819 5.35192C25.4388 5.80887 25.6673 6.35817 25.6673 6.99984V20.9998C25.6673 21.6415 25.4388 22.1908 24.9819 22.6478C24.525 23.1047 23.9756 23.3332 23.334 23.3332H4.66732ZM14.0007 14.9623C14.0979 14.9623 14.2 14.9478 14.3069 14.9186C14.4138 14.8894 14.5159 14.8457 14.6132 14.7873L22.8673 9.62484C23.0229 9.52762 23.1395 9.40609 23.2173 9.26025C23.2951 9.11442 23.334 8.954 23.334 8.779C23.334 8.39012 23.1687 8.09845 22.8382 7.904C22.5076 7.70956 22.1673 7.71928 21.8173 7.93317L14.0007 12.8332L6.18398 7.93317C5.83398 7.71928 5.49371 7.71442 5.16315 7.91859C4.8326 8.12275 4.66732 8.40956 4.66732 8.779C4.66732 8.97345 4.70621 9.14359 4.78398 9.28942C4.86176 9.43525 4.97843 9.54706 5.13398 9.62484L13.3882 14.7873C13.4854 14.8457 13.5875 14.8894 13.6944 14.9186C13.8013 14.9478 13.9034 14.9623 14.0007 14.9623Z" fill="white"/>
</svg>
