<svg width="16" height="14" viewBox="0 0 16 14" fill="none" xmlns="http://www.w3.org/2000/svg">
<path d="M10.8401 0.765913V0.763184H11.5509L11.8106 0.815051C11.9837 0.848723 12.1409 0.892851 12.2821 0.947448C12.4234 1.00204 12.56 1.06575 12.6922 1.13854C12.8243 1.21133 12.9441 1.2855 13.0516 1.36102C13.1583 1.43564 13.2539 1.5148 13.3387 1.59851C13.4225 1.68314 13.5533 1.70498 13.7309 1.66403C13.9086 1.62308 14.1 1.56621 14.305 1.49342C14.51 1.42062 14.7128 1.33873 14.9132 1.24773C15.1137 1.15673 15.2358 1.09895 15.2795 1.07439C15.3224 1.04892 15.3452 1.03527 15.3479 1.03344L15.3506 1.02934L15.3643 1.02252L15.3779 1.01569L15.3916 1.00887L15.4053 1.00204L15.408 0.99795L15.4121 0.99522L15.4162 0.99249L15.4189 0.988395L15.4326 0.9843L15.4463 0.981571L15.4436 1.00204L15.4394 1.02252L15.4326 1.04299L15.4258 1.06347L15.4189 1.07711L15.4121 1.09076L15.4053 1.11124C15.4007 1.12489 15.3962 1.14308 15.3916 1.16583C15.3871 1.18859 15.3438 1.27957 15.2618 1.43882C15.1798 1.59806 15.0772 1.75957 14.9542 1.92336C14.8312 2.08715 14.721 2.2109 14.6235 2.29462C14.5251 2.37925 14.4599 2.43839 14.428 2.47206C14.3961 2.50664 14.3574 2.53848 14.3118 2.56761L14.2435 2.61265L14.2298 2.61947L14.2162 2.6263L14.2134 2.63039L14.2093 2.63312L14.2052 2.63585L14.2025 2.63995L14.1888 2.64677L14.1752 2.6536L14.1724 2.65769L14.1683 2.66042L14.1642 2.66315L14.1615 2.66725L14.1588 2.67134L14.1546 2.67407L14.1505 2.6768L14.1478 2.68089H14.2162L14.5989 2.599C14.854 2.5444 15.0977 2.47844 15.3301 2.40109L15.6991 2.27824L15.7401 2.26459L15.7606 2.25777L15.7743 2.25094L15.788 2.24412L15.8017 2.2373L15.8153 2.23047L15.8427 2.22638L15.87 2.22365V2.25094L15.8632 2.25367L15.8563 2.25777L15.8536 2.26186L15.8495 2.26459L15.8454 2.26732L15.8427 2.27142L15.8399 2.27551L15.8358 2.27824L15.8317 2.28097L15.829 2.28507L15.8263 2.28916L15.8222 2.29189L15.8153 2.30554L15.8085 2.31919L15.8044 2.32192C15.8026 2.32465 15.7447 2.40199 15.6308 2.55396C15.5169 2.70683 15.4554 2.78416 15.4463 2.78599C15.4372 2.78872 15.4244 2.80237 15.408 2.82694C15.3925 2.85241 15.2959 2.95388 15.1182 3.13132C14.9406 3.30876 14.7665 3.46662 14.5961 3.60494C14.4248 3.74417 14.3383 3.91523 14.3364 4.11815C14.3337 4.32016 14.3232 4.54857 14.305 4.80334C14.2868 5.05813 14.2526 5.33338 14.2025 5.62912C14.1524 5.92486 14.0749 6.25926 13.9701 6.63233C13.8654 7.00541 13.7378 7.36939 13.5874 7.72427C13.4371 8.07915 13.2799 8.39762 13.1159 8.67971C12.9519 8.9618 12.8015 9.20066 12.6648 9.39629C12.5281 9.59193 12.3892 9.77619 12.248 9.94909C12.1067 10.122 11.9281 10.3167 11.7122 10.5333C11.4953 10.7489 11.3769 10.8672 11.3568 10.8881C11.3359 10.9082 11.2466 10.9828 11.0889 11.112C10.9322 11.2421 10.7636 11.3722 10.5832 11.5024C10.4037 11.6316 10.2387 11.7394 10.0884 11.8258C9.93805 11.9123 9.75673 12.011 9.54441 12.122C9.33302 12.234 9.1043 12.3377 8.85827 12.4332C8.61224 12.5288 8.35255 12.6175 8.07919 12.6994C7.80583 12.7813 7.54158 12.845 7.28644 12.8905C7.03131 12.936 6.742 12.9747 6.41852 13.0065L5.9333 13.0543V13.0611H5.04488V13.0543L4.9287 13.0475C4.85125 13.0429 4.78747 13.0383 4.73735 13.0338C4.68724 13.0293 4.49815 13.0042 4.17012 12.9587C3.84209 12.9132 3.58468 12.8677 3.39787 12.8222C3.21109 12.7767 2.93316 12.6903 2.56412 12.5629C2.19508 12.4355 1.87935 12.3068 1.61692 12.1766C1.35541 12.0474 1.1914 11.9655 1.12487 11.9309C1.05927 11.8973 0.985459 11.8554 0.90345 11.8054L0.780438 11.7303L0.777718 11.7262L0.773604 11.7235L0.769503 11.7207L0.766769 11.7167L0.753101 11.7098L0.739433 11.703L0.736713 11.6989L0.732599 11.6962L0.728499 11.6935L0.725765 11.6894L0.723045 11.6853L0.718931 11.6825H0.712097V11.6552L0.725765 11.658L0.739433 11.6621L0.80094 11.6689C0.841944 11.6734 0.953571 11.6803 1.13581 11.6894C1.31806 11.6985 1.51168 11.6985 1.7167 11.6894C1.92172 11.6803 2.13131 11.6598 2.34543 11.6279C2.55957 11.5961 2.81243 11.5415 3.10401 11.4641C3.39561 11.3868 3.6635 11.2949 3.90771 11.1884C4.151 11.0811 4.32412 11.001 4.42709 10.9482C4.52914 10.8963 4.68496 10.7999 4.89453 10.6588L5.20889 10.4473L5.21163 10.4432L5.21573 10.4405L5.21984 10.4377L5.22256 10.4336L5.2253 10.4295L5.2294 10.4268L5.23351 10.4241L5.23623 10.42L5.2499 10.4159L5.26357 10.4132L5.2663 10.3995L5.2704 10.3859L5.27451 10.3831L5.27723 10.379L5.16789 10.3722C5.095 10.3677 5.02437 10.3631 4.95603 10.3586C4.88769 10.354 4.78063 10.3335 4.63483 10.2971C4.48905 10.2607 4.33187 10.2061 4.16329 10.1333C3.99472 10.0606 3.8307 9.9741 3.67124 9.87401C3.51178 9.77393 3.39651 9.69065 3.32543 9.62424C3.25527 9.55871 3.16415 9.4659 3.05207 9.34579C2.94091 9.22478 2.84432 9.10056 2.76231 8.97317C2.6803 8.84578 2.60194 8.69881 2.52723 8.5323L2.41377 8.28389L2.40694 8.26341L2.4001 8.24294L2.396 8.22929L2.39327 8.21564L2.41377 8.21837L2.43427 8.22246L2.58462 8.24294C2.68487 8.25659 2.84205 8.26113 3.05617 8.25659C3.27031 8.25204 3.41838 8.24294 3.50038 8.22929C3.58239 8.21564 3.63251 8.20654 3.65073 8.20199L3.67807 8.19517L3.71224 8.18834L3.74641 8.18152L3.74914 8.17742L3.75324 8.17469L3.75736 8.17196L3.76008 8.16787L3.73274 8.16104L3.70541 8.15422L3.67807 8.14739L3.65073 8.14057L3.6234 8.13374C3.60518 8.1292 3.57329 8.12009 3.52772 8.10645C3.48216 8.0928 3.35915 8.04275 3.15868 7.9563C2.95823 7.86986 2.79876 7.78569 2.6803 7.70379C2.56155 7.62166 2.44831 7.53184 2.34133 7.43491C2.23472 7.33663 2.11764 7.21014 1.99006 7.05546C1.8625 6.90077 1.7486 6.72105 1.64836 6.51632C1.54813 6.31158 1.47296 6.11594 1.42284 5.9294C1.37292 5.74395 1.33998 5.55436 1.32444 5.36296L1.29982 5.07633L1.31349 5.07906L1.32716 5.08315L1.34083 5.08998L1.3545 5.0968L1.36816 5.10362L1.38183 5.11045L1.59369 5.20599C1.73493 5.26969 1.91034 5.32429 2.11991 5.36978C2.3295 5.41528 2.45478 5.44031 2.49578 5.44485L2.55729 5.45168H2.6803L2.67758 5.44758L2.67347 5.44485L2.66937 5.44212L2.66663 5.43803L2.66391 5.43394L2.6598 5.43121L2.6557 5.42848L2.65296 5.42438L2.6393 5.41756L2.62563 5.41073L2.62291 5.40664L2.61879 5.40391L2.61469 5.40118L2.61196 5.39708L2.59829 5.39026L2.58462 5.38343L2.5819 5.37934C2.57917 5.37751 2.53998 5.3484 2.46434 5.29198C2.38962 5.23466 2.31126 5.1605 2.22925 5.0695C2.14725 4.9785 2.06524 4.88296 1.98323 4.78287C1.90107 4.68255 1.82789 4.57522 1.76454 4.46211C1.70076 4.34837 1.63333 4.20368 1.56225 4.02807C1.49209 3.85336 1.43879 3.67728 1.40233 3.49985C1.3659 3.32241 1.34539 3.14725 1.34083 2.97435C1.33628 2.80146 1.34083 2.6536 1.3545 2.53075C1.36816 2.40791 1.3955 2.26914 1.43651 2.11445C1.47751 1.95977 1.53675 1.79598 1.61419 1.62308L1.73037 1.36375L1.7372 1.34327L1.74404 1.3228L1.74815 1.32007L1.75087 1.31598L1.7536 1.31188L1.7577 1.30915L1.76182 1.31188L1.76454 1.31598L1.76727 1.32007L1.77137 1.3228L1.77549 1.32553L1.77821 1.32962L1.78094 1.33372L1.78504 1.33645L1.79188 1.3501L1.79871 1.36375L1.80282 1.36648L1.80554 1.37057L1.99006 1.57531C2.11307 1.7118 2.25887 1.86422 2.42744 2.03256C2.59602 2.20089 2.68942 2.28825 2.70764 2.29462C2.72587 2.3019 2.74864 2.32282 2.77598 2.35741C2.80331 2.39108 2.89444 2.47161 3.04934 2.599C3.20425 2.72639 3.40699 2.87426 3.65757 3.0426C3.90816 3.21093 4.18607 3.377 4.49132 3.54079C4.79658 3.70458 5.12462 3.85244 5.47542 3.98439C5.82624 4.11634 6.07227 4.20278 6.2135 4.24373C6.35474 4.28467 6.5962 4.33699 6.93791 4.40069C7.27961 4.46439 7.53703 4.50534 7.71015 4.52353C7.88329 4.54173 8.00175 4.5522 8.06552 4.55493L8.1612 4.55766L8.15848 4.53718L8.15436 4.51671L8.12703 4.34609C8.10881 4.23236 8.09969 4.07311 8.09969 3.86837C8.09969 3.66364 8.11564 3.47483 8.14753 3.30193C8.17943 3.12904 8.22727 2.95388 8.29104 2.77644C8.35483 2.599 8.41726 2.45658 8.4783 2.34922C8.54027 2.24276 8.62136 2.12128 8.72159 1.98479C8.82183 1.84829 8.95168 1.70726 9.11113 1.56166C9.27059 1.41607 9.45283 1.2864 9.65785 1.17266C9.86287 1.05892 10.052 0.972467 10.2251 0.913325C10.3982 0.854183 10.544 0.815501 10.6625 0.797307C10.7809 0.779112 10.8401 0.768643 10.8401 0.765913Z" fill="white"/>
</svg>
