<svg width="225" height="235" viewBox="0 0 225 235" fill="none" xmlns="http://www.w3.org/2000/svg">
<path d="M112.818 234.919C51.0128 234.919 0.724609 182.398 0.724609 117.849C0.724609 94.8782 7.10872 72.6383 19.1558 53.5217C22.5282 48.161 29.4425 46.6769 34.554 50.2211C39.6868 53.7432 41.0866 60.9424 37.7143 66.303C28.0639 81.6096 22.9524 99.4414 22.9524 117.849C22.9524 169.595 63.2719 211.704 112.818 211.704C162.364 211.704 202.683 169.595 202.683 117.849C202.683 66.1036 162.364 23.9939 112.818 23.9939C106.667 23.9939 101.704 18.7883 101.704 12.3866C101.704 5.98486 106.688 0.779297 112.818 0.779297C174.623 0.779297 224.911 53.3002 224.911 117.849C224.911 182.398 174.623 234.919 112.818 234.919Z" fill="#908FC6"/>
</svg>
