<svg width="112" height="110" viewBox="0 0 112 110" fill="none" xmlns="http://www.w3.org/2000/svg">
<g style="mix-blend-mode:hard-light" opacity="0.4">
<path d="M110.905 94.7403L85.9706 65.8929C84.2258 63.8748 83.0911 59.221 71.6999 68.24C69.2354 70.3323 67.5622 72.8633 66.6268 75.6467C65.0994 76.7807 63.3084 77.9163 61.2499 78.7072C55.7231 80.83 48.2678 80.4663 38.8042 70.9104C31.9723 64.0117 29.4823 57.9154 30.0916 52.7272C30.3386 50.6275 31.0929 48.6771 32.272 46.8825C37.0578 46.4446 41.4655 44.4471 44.8432 40.712C45.0392 40.4951 45.2277 40.2741 45.4114 40.0514C52.2688 32.469 51.2856 30.1442 49.4165 28.5946L18.6864 3.11436C16.5364 1.33134 14.561 -3.27878 4.35226 8.00901C-1.23301 14.6256 -0.977747 23.3016 3.63918 31.0019C3.05126 36.1085 3.45226 41.5095 4.58529 46.8734C6.18931 54.4665 9.25738 61.9846 13.0517 68.4824C14.3206 70.6555 15.671 72.7148 17.0749 74.624C18.4212 76.4813 19.8087 78.2577 21.2439 79.9649C24.7846 84.1775 28.6152 87.9695 32.8427 91.5199C34.1857 92.6481 35.5698 93.7507 36.9968 94.836C38.0335 95.6104 39.0834 96.3667 40.1456 97.1015C49.6742 103.693 60.2305 108.553 72.0326 109.121C72.5703 109.146 73.1335 109.15 73.7173 109.132C76.7944 109.038 80.4661 108.358 84.2629 107.324C91.2875 110.366 98.8317 110.073 104.691 105.433C104.91 105.26 105.122 105.081 105.33 104.9C112.982 98.8416 112.421 96.4961 110.905 94.7412V94.7403Z" fill="#3F60BC"/>
</g>
</svg>
