<svg width="225" height="235" viewBox="0 0 225 235" fill="none" xmlns="http://www.w3.org/2000/svg">
<path d="M112.818 234.919C51.0127 234.919 0.724548 182.398 0.724548 117.849C0.724548 94.8781 7.10866 72.6381 19.1558 53.5215C22.5281 48.1609 29.4425 46.6767 34.554 50.2209C39.6867 53.743 41.0866 60.9422 37.7142 66.3028C28.0638 81.6094 22.9523 99.4412 22.9523 117.849C22.9523 169.595 63.2719 211.704 112.818 211.704C162.364 211.704 202.683 169.595 202.683 117.849C202.683 66.1034 162.364 23.9937 112.818 23.9937C106.667 23.9937 101.704 18.7882 101.704 12.3864C101.704 5.98468 106.688 0.779114 112.818 0.779114C174.623 0.779114 224.911 53.3 224.911 117.849C224.911 182.398 174.623 234.919 112.818 234.919Z" fill="#908FC6"/>
</svg>
