<svg width="18" height="12" viewBox="0 0 18 12" fill="none" xmlns="http://www.w3.org/2000/svg">
<path d="M9.08118 11.7909L5.66038 11.727C4.55281 11.7047 3.44247 11.7492 2.35661 11.5184C0.704768 11.1735 0.587745 9.48264 0.465294 8.06433C0.296568 6.07036 0.361887 4.0402 0.680294 2.06287C0.860046 0.953384 1.56744 0.291345 2.6614 0.219303C6.35433 -0.0421499 10.0718 -0.011165 13.7566 0.110812C14.1457 0.121994 14.5375 0.183111 14.9213 0.252678C16.8154 0.591977 16.8616 2.5081 16.9844 4.12112C17.1069 5.75078 17.0552 7.38881 16.8211 9.00737C16.6333 10.3475 16.2741 11.4713 14.758 11.5798C12.8584 11.7217 11.0024 11.8359 9.09746 11.7995C9.09755 11.7909 9.08661 11.7909 9.08118 11.7909ZM7.07008 8.39808C8.50158 7.55816 9.90576 6.73223 11.3291 5.89794C9.8949 5.05801 8.49339 4.23208 7.07008 3.39779V8.39808Z" fill="white"/>
</svg>
